<?xml version="1.0" encoding="UTF-8"?>
<svg width="122px" height="216px" viewBox="0 0 122 216" version="1.1" xmlns="http://www.w3.org/2000/svg" xmlns:xlink="http://www.w3.org/1999/xlink">
    <!-- Generator: Sketch 60.1 (88133) - https://sketch.com -->
    <title>pattern digital</title>
    <desc>Created with Sketch.</desc>
    <g id="pattern-digital" stroke="none" stroke-width="1" fill="none" fill-rule="evenodd">
        <path d="M0,42 C2.76142375,42 5,39.7614237 5,37 C5,34.2385763 2.76142375,32 0,32 L0,42 L0,42 Z" id="Oval" fill="#ECEBEB"></path>
        <path d="M0,115 C3.86599325,115 7,111.865993 7,108 C7,104.134007 3.86599325,101 0,101 L0,115 L0,115 Z" id="Oval-Copy" fill="#ECEBEB"></path>
        <path d="M0,184 C2.76142375,184 5,181.761424 5,179 C5,176.238576 2.76142375,174 0,174 L0,184 L0,184 Z" id="Oval-Copy-2" fill="#ECEBEB"></path>
        <circle id="Oval-Copy-3" fill="#ECEBEB" cx="61" cy="72" r="6"></circle>
        <circle id="Oval-Copy-4" fill="#ECEBEB" cx="61" cy="144" r="7"></circle>
        <path d="M68,216 C68,212.134007 64.8659932,209 61,209 C57.1340068,209 54,212.134007 54,216 L68,216 L68,216 Z" id="Oval-Copy-4" fill="#ECEBEB"></path>
        <path d="M61,7 C64.8659932,7 68,3.86599325 68,0 L54,0 L54,0 C54,3.86599325 57.1340068,7 61,7 Z" id="Oval-Copy-5" fill="#ECEBEB"></path>
        <path d="M122,42 L122,32 L122,32 C119.238576,32 117,34.2385763 117,37 C117,39.7614237 119.238576,42 122,42 Z" id="Oval" fill="#ECEBEB"></path>
        <path d="M122,184 L122,174 L122,174 C119.238576,174 117,176.238576 117,179 C117,181.761424 119.238576,184 122,184 Z" id="Oval-Copy-2" fill="#ECEBEB"></path>
        <path d="M122,115 L122,101 L122,101 C118.134007,101 115,104.134007 115,108 C115,111.865993 118.134007,115 122,115 Z" id="Oval-Copy" fill="#ECEBEB"></path>
        <path d="M61,72 L2.44541191,38.4031052 L61,72 Z" id="Path-2" stroke="#ECEBEB" stroke-width="0.5"></path>
        <polyline id="Path-3" stroke="#ECEBEB" stroke-width="0.5" points="1.50527275 37.8636811 61 72 3.54544155 106.849486 3.62270544 111.078601 61 144"></polyline>
        <polyline id="Path" stroke="#ECEBEB" stroke-width="0.5" points="62.5628045 0.947930591 120.690658 36.2058089 120.749695 37.7173882 61 72"></polyline>
        <polyline id="Path-4" stroke="#ECEBEB" stroke-width="0.5" points="61 72 121.014725 107.418527 121.006579 108.586281 61 144 120.271406 178.008184"></polyline>
        <polyline id="Path-5" stroke="#ECEBEB" stroke-width="0.5" points="121.5 0 121.5 92.2519965 121.5 178.434783 121.5 216"></polyline>
        <line x1="61" y1="144" x2="61" y2="216" id="Path-7" stroke="#ECEBEB" stroke-width="0.5"></line>
        <line x1="61" y1="72" x2="61" y2="0" id="Path-8" stroke="#ECEBEB" stroke-width="0.5"></line>
        <line x1="1.72755662" y1="35.9521378" x2="58.839122" y2="1.31069648" id="Path-9" stroke="#ECEBEB" stroke-width="0.5"></line>
        <line x1="0" y1="179" x2="61" y2="144" id="Path-6" stroke="#ECEBEB" stroke-width="0.5"></line>
        <line x1="61" y1="144" x2="61" y2="72" id="Path-10" stroke="#ECEBEB" stroke-width="0.5"></line>
    </g>
</svg>