<svg width="180" height="32" viewBox="0 0 180 32" fill="none" xmlns="http://www.w3.org/2000/svg">
<g opacity="0.3">
<path fill-rule="evenodd" clip-rule="evenodd" d="M0.5 1.69925C6.84146 0.766917 11.313 0.766917 13.9146 1.69925C18.5002 3.34255 19.5244 6.86226 19.5244 8.45865C19.5244 10.0215 18.8983 11.4755 17.6462 12.8208C17.0701 13.4399 15.8262 14.3167 13.9146 15.4511C18.1423 16.3835 20.3374 19.0251 20.5 23.3759C20.5 29.7469 13.8333 32.5439 0.5 31.7669V1.69925ZM4.64634 17.0827V28.9699C12.2886 29.2807 16.1098 27.3383 16.1098 23.1429C16.1098 18.4812 12.2886 16.4612 4.64634 17.0827ZM4.64634 14.0526V4.26316C11.6308 3.02005 15.2062 4.49624 15.3725 8.69173C15.5388 12.8872 11.9634 14.6742 4.64634 14.0526Z" fill="#575757"/>
<path d="M25.5 1V32H29.5V1H25.5Z" fill="#575757"/>
<path d="M33.5 1V4.31298H42.8438V32H47.1562V4.31298H56.5V1" fill="#575757"/>
<path d="M76.0349 1.58534L74.5698 6.32608C73.1047 5.53595 71.3953 4.98287 69.4419 4.66682C65.0465 4.42978 62.6192 6.1879 63.093 9.40756C63.4158 11.6006 66.2674 12.489 69.686 13.6742C70.907 14.3853 77.5 15.3335 77.5 23.3927C76.7932 29.6513 71.7467 32.4958 62.3605 31.9261C59.7558 31.452 57.8023 30.8199 56.5 30.0298C56.8256 29.2397 57.2326 27.6594 57.7209 25.289C59.5116 26.5532 62.3605 27.2643 66.2674 27.4224C71.1512 26.7113 70.907 24.5779 71.1512 23.3927C71.3953 22.2076 70.6628 19.3631 65.7791 18.1779C64.8499 17.8549 63.5814 17.2298 62.3605 16.7557C61.1395 16.0446 58.9419 15.3335 57.4767 12.489C56.8256 10.5927 56.5814 9.09151 56.7442 7.98534C57.0698 4.98287 59.3488 2.53348 63.5814 0.637188C67.7997 -0.457648 71.9509 -0.141598 76.0349 1.58534Z" fill="#575757"/>
<path d="M84.5 1V32H90.5V1H84.5Z" fill="#575757"/>
<path d="M119.281 6.00029L120.607 1.35553C113.857 -0.171242 109.025 -0.408279 106.111 0.644418C104.774 1.12737 103.538 1.55975 102.327 2.37452C101.513 2.92161 100.712 3.77128 99.8986 4.43701C96.4781 7.64986 95.2671 13.0692 95.5362 17.6086C95.8825 23.4512 99.292 28.7769 104.73 30.5111C111.863 33.1185 117.155 31.4592 121.297 30.037C121.297 30.037 121.297 24.7432 121.297 14.1555H110.483V18.6592H116.005V26.7185C113.935 26.9197 112.401 26.9987 111.403 26.9555C104.514 26.6577 100.938 22.1511 101.509 14.1555C102.082 8.49109 106.019 4.87465 112.323 4.67405C113.748 4.6287 116.068 5.07078 119.281 6.00029Z" fill="#575757"/>
<path d="M126.5 1V32H132.325V18.2748H145.675V32H151.5V1H145.675V13.3053H132.325V1" fill="#575757"/>
<path d="M155.5 1V5.73282H164.47V32H170.53V5.73282H179.5V1H155.5Z" fill="#575757"/>
</g>
</svg>
