<svg width="17" height="12" viewBox="0 0 17 12" fill="none" xmlns="http://www.w3.org/2000/svg">
<path d="M8.44853 3.45599C7.17748 3.45599 6.14453 4.48894 6.14453 5.75999C6.14453 7.03105 7.17748 8.06399 8.44853 8.06399C9.71958 8.06399 10.7525 7.03105 10.7525 5.75999C10.7525 4.48894 9.71955 3.45599 8.44853 3.45599Z" fill="black"/>
<path fill-rule="evenodd" clip-rule="evenodd" d="M0 5.76C1.32865 2.38846 4.608 0 8.44801 0C12.2918 0 15.5674 2.38846 16.896 5.76C15.5674 9.13151 12.2918 11.52 8.44801 11.52C4.608 11.52 1.32865 9.13151 0 5.76ZM4.608 5.75996C4.608 7.87964 6.32833 9.59998 8.44801 9.59998C10.5677 9.59998 12.288 7.87968 12.288 5.76C12.288 3.64032 10.5677 1.91999 8.44801 1.91999C6.32833 1.91999 4.608 3.64028 4.608 5.75996Z" fill="black"/>
</svg>
