<svg width="391" height="119" viewBox="0 0 391 119" fill="none" xmlns="http://www.w3.org/2000/svg">
<path d="M391 0V106.44H46.87L35.9 118.5L24.93 106.44H0V0L391 0Z" fill="#131D4B"/>
<path opacity="0.6" d="M219.07 38.175C219.74 38.175 220.33 38.32 220.84 38.61C221.35 38.89 221.745 39.29 222.025 39.81C222.305 40.32 222.445 40.91 222.445 41.58C222.445 42.28 222.285 42.9 221.965 43.44C221.645 43.97 221.185 44.385 220.585 44.685C219.985 44.975 219.29 45.12 218.5 45.12C217.83 45.12 217.17 45.01 216.52 44.79C215.87 44.56 215.335 44.255 214.915 43.875L215.56 42.465C216.53 43.205 217.52 43.575 218.53 43.575C219.2 43.575 219.71 43.41 220.06 43.08C220.42 42.74 220.6 42.26 220.6 41.64C220.6 41.05 220.415 40.58 220.045 40.23C219.685 39.87 219.2 39.69 218.59 39.69C218.17 39.69 217.775 39.77 217.405 39.93C217.035 40.08 216.71 40.305 216.43 40.605H215.26V34.32H221.95V35.82H217.15V38.73C217.69 38.36 218.33 38.175 219.07 38.175ZM229.294 39.51C229.984 39.68 230.524 39.995 230.914 40.455C231.304 40.915 231.499 41.47 231.499 42.12C231.499 42.73 231.329 43.265 230.989 43.725C230.659 44.175 230.189 44.52 229.579 44.76C228.979 45 228.284 45.12 227.494 45.12C226.704 45.12 226.004 45 225.394 44.76C224.794 44.52 224.324 44.175 223.984 43.725C223.654 43.265 223.489 42.73 223.489 42.12C223.489 41.47 223.684 40.915 224.074 40.455C224.464 39.995 225.004 39.68 225.694 39.51C225.094 39.31 224.619 38.995 224.269 38.565C223.929 38.135 223.759 37.635 223.759 37.065C223.759 36.485 223.919 35.98 224.239 35.55C224.559 35.11 224.999 34.775 225.559 34.545C226.129 34.305 226.774 34.185 227.494 34.185C228.214 34.185 228.854 34.305 229.414 34.545C229.984 34.775 230.429 35.11 230.749 35.55C231.069 35.98 231.229 36.485 231.229 37.065C231.229 37.645 231.054 38.155 230.704 38.595C230.364 39.025 229.894 39.33 229.294 39.51ZM227.494 35.7C226.904 35.7 226.439 35.835 226.099 36.105C225.759 36.375 225.589 36.76 225.589 37.26C225.589 37.73 225.759 38.115 226.099 38.415C226.449 38.705 226.914 38.895 227.494 38.985C228.074 38.895 228.534 38.705 228.874 38.415C229.224 38.115 229.399 37.73 229.399 37.26C229.399 36.76 229.229 36.375 228.889 36.105C228.549 35.835 228.084 35.7 227.494 35.7ZM227.494 43.605C228.174 43.605 228.704 43.465 229.084 43.185C229.474 42.905 229.669 42.505 229.669 41.985C229.669 41.495 229.469 41.1 229.069 40.8C228.679 40.5 228.154 40.305 227.494 40.215C226.834 40.305 226.304 40.5 225.904 40.8C225.514 41.1 225.319 41.495 225.319 41.985C225.319 42.505 225.509 42.905 225.889 43.185C226.279 43.465 226.814 43.605 227.494 43.605ZM237.058 38.175C237.728 38.175 238.318 38.32 238.828 38.61C239.338 38.89 239.733 39.29 240.013 39.81C240.293 40.32 240.433 40.91 240.433 41.58C240.433 42.28 240.273 42.9 239.953 43.44C239.633 43.97 239.173 44.385 238.573 44.685C237.973 44.975 237.278 45.12 236.488 45.12C235.818 45.12 235.158 45.01 234.508 44.79C233.858 44.56 233.323 44.255 232.903 43.875L233.548 42.465C234.518 43.205 235.508 43.575 236.518 43.575C237.188 43.575 237.698 43.41 238.048 43.08C238.408 42.74 238.588 42.26 238.588 41.64C238.588 41.05 238.403 40.58 238.033 40.23C237.673 39.87 237.188 39.69 236.578 39.69C236.158 39.69 235.763 39.77 235.393 39.93C235.023 40.08 234.698 40.305 234.418 40.605H233.248V34.32H239.938V35.82H235.138V38.73C235.678 38.36 236.318 38.175 237.058 38.175ZM245.482 45.135C244.212 45.135 243.242 44.67 242.572 43.74C241.912 42.8 241.582 41.435 241.582 39.645C241.582 37.885 241.912 36.54 242.572 35.61C243.242 34.68 244.212 34.215 245.482 34.215C246.752 34.215 247.717 34.68 248.377 35.61C249.047 36.53 249.382 37.875 249.382 39.645C249.382 41.425 249.047 42.785 248.377 43.725C247.717 44.665 246.752 45.135 245.482 45.135ZM245.482 43.62C246.172 43.62 246.672 43.305 246.982 42.675C247.302 42.035 247.462 41.025 247.462 39.645C247.462 38.285 247.302 37.295 246.982 36.675C246.672 36.045 246.172 35.73 245.482 35.73C244.792 35.73 244.287 36.045 243.967 36.675C243.657 37.295 243.502 38.285 243.502 39.645C243.502 41.025 243.657 42.035 243.967 42.675C244.287 43.305 244.792 43.62 245.482 43.62ZM258.862 45.135C258.042 45.135 257.272 45.025 256.552 44.805C255.842 44.585 255.237 44.27 254.737 43.86L255.397 42.45C255.917 42.84 256.457 43.13 257.017 43.32C257.587 43.5 258.207 43.59 258.877 43.59C259.617 43.59 260.187 43.46 260.587 43.2C260.997 42.94 261.202 42.575 261.202 42.105C261.202 41.705 261.012 41.4 260.632 41.19C260.262 40.97 259.647 40.765 258.787 40.575C257.447 40.285 256.472 39.91 255.862 39.45C255.252 38.99 254.947 38.32 254.947 37.44C254.947 36.81 255.117 36.25 255.457 35.76C255.797 35.27 256.277 34.885 256.897 34.605C257.527 34.325 258.252 34.185 259.072 34.185C259.822 34.185 260.532 34.3 261.202 34.53C261.882 34.75 262.437 35.06 262.867 35.46L262.222 36.87C261.272 36.11 260.222 35.73 259.072 35.73C258.382 35.73 257.837 35.875 257.437 36.165C257.037 36.445 256.837 36.83 256.837 37.32C256.837 37.74 257.012 38.06 257.362 38.28C257.722 38.5 258.332 38.705 259.192 38.895C260.082 39.105 260.807 39.335 261.367 39.585C261.927 39.825 262.357 40.14 262.657 40.53C262.957 40.91 263.107 41.39 263.107 41.97C263.107 42.61 262.937 43.17 262.597 43.65C262.257 44.12 261.767 44.485 261.127 44.745C260.487 45.005 259.732 45.135 258.862 45.135ZM272.01 37.425V45H270.165V43.785C269.935 44.205 269.605 44.535 269.175 44.775C268.745 45.005 268.255 45.12 267.705 45.12C267.045 45.12 266.46 44.96 265.95 44.64C265.44 44.32 265.045 43.865 264.765 43.275C264.485 42.685 264.345 42 264.345 41.22C264.345 40.44 264.485 39.75 264.765 39.15C265.055 38.54 265.455 38.07 265.965 37.74C266.475 37.4 267.055 37.23 267.705 37.23C268.255 37.23 268.745 37.35 269.175 37.59C269.605 37.82 269.935 38.145 270.165 38.565V37.425H272.01ZM268.215 43.65C268.835 43.65 269.315 43.435 269.655 43.005C269.995 42.575 270.165 41.97 270.165 41.19C270.165 40.39 269.995 39.775 269.655 39.345C269.315 38.915 268.83 38.7 268.2 38.7C267.58 38.7 267.095 38.925 266.745 39.375C266.405 39.815 266.235 40.43 266.235 41.22C266.235 42 266.405 42.6 266.745 43.02C267.095 43.44 267.585 43.65 268.215 43.65ZM278.387 37.23C280.197 37.23 281.102 38.27 281.102 40.35V45H279.227V40.44C279.227 39.84 279.112 39.405 278.882 39.135C278.652 38.855 278.297 38.715 277.817 38.715C277.247 38.715 276.787 38.9 276.437 39.27C276.087 39.63 275.912 40.11 275.912 40.71V45H274.052V39.57C274.052 38.77 274.012 38.055 273.932 37.425H275.687L275.822 38.67C276.082 38.21 276.432 37.855 276.872 37.605C277.322 37.355 277.827 37.23 278.387 37.23ZM287.341 34.32H294.316V35.865H289.261V38.79H294.016V40.35H289.261V45H287.341V34.32ZM302.273 41.31H297.053C297.093 42.12 297.293 42.72 297.653 43.11C298.023 43.49 298.568 43.68 299.288 43.68C300.118 43.68 300.888 43.41 301.598 42.87L302.138 44.16C301.778 44.45 301.333 44.685 300.803 44.865C300.283 45.035 299.753 45.12 299.213 45.12C297.973 45.12 296.998 44.77 296.288 44.07C295.578 43.37 295.223 42.41 295.223 41.19C295.223 40.42 295.378 39.735 295.688 39.135C295.998 38.535 296.433 38.07 296.993 37.74C297.553 37.4 298.188 37.23 298.898 37.23C299.938 37.23 300.758 37.57 301.358 38.25C301.968 38.92 302.273 39.845 302.273 41.025V41.31ZM298.943 38.58C298.443 38.58 298.033 38.73 297.713 39.03C297.403 39.32 297.203 39.745 297.113 40.305H300.638C300.578 39.735 300.403 39.305 300.113 39.015C299.833 38.725 299.443 38.58 298.943 38.58ZM303.86 33.96H305.72V45H303.86V33.96ZM307.771 37.425H309.631V45H307.771V37.425ZM309.736 33.99V35.835H307.651V33.99H309.736ZM316.002 37.23C316.652 37.23 317.227 37.4 317.727 37.74C318.237 38.07 318.632 38.54 318.912 39.15C319.202 39.75 319.347 40.44 319.347 41.22C319.347 42 319.207 42.685 318.927 43.275C318.647 43.865 318.252 44.32 317.742 44.64C317.242 44.96 316.662 45.12 316.002 45.12C315.452 45.12 314.962 45.005 314.532 44.775C314.102 44.535 313.772 44.205 313.542 43.785V48.24H311.682V39.57C311.682 38.77 311.642 38.055 311.562 37.425H313.317L313.467 38.73C313.667 38.26 313.992 37.895 314.442 37.635C314.892 37.365 315.412 37.23 316.002 37.23ZM315.492 43.65C316.122 43.65 316.607 43.44 316.947 43.02C317.287 42.6 317.457 42 317.457 41.22C317.457 40.43 317.287 39.815 316.947 39.375C316.607 38.925 316.127 38.7 315.507 38.7C314.867 38.7 314.377 38.915 314.037 39.345C313.697 39.775 313.527 40.39 313.527 41.19C313.527 41.98 313.697 42.59 314.037 43.02C314.377 43.44 314.862 43.65 315.492 43.65ZM327.614 41.31H322.394C322.434 42.12 322.634 42.72 322.994 43.11C323.364 43.49 323.909 43.68 324.629 43.68C325.459 43.68 326.229 43.41 326.939 42.87L327.479 44.16C327.119 44.45 326.674 44.685 326.144 44.865C325.624 45.035 325.094 45.12 324.554 45.12C323.314 45.12 322.339 44.77 321.629 44.07C320.919 43.37 320.564 42.41 320.564 41.19C320.564 40.42 320.719 39.735 321.029 39.135C321.339 38.535 321.774 38.07 322.334 37.74C322.894 37.4 323.529 37.23 324.239 37.23C325.279 37.23 326.099 37.57 326.699 38.25C327.309 38.92 327.614 39.845 327.614 41.025V41.31ZM324.284 38.58C323.784 38.58 323.374 38.73 323.054 39.03C322.744 39.32 322.544 39.745 322.454 40.305H325.979C325.919 39.735 325.744 39.305 325.454 39.015C325.174 38.725 324.784 38.58 324.284 38.58ZM336.092 45.12C334.722 45.12 333.632 44.8 332.822 44.16L333.347 42.84C334.157 43.44 335.082 43.74 336.122 43.74C336.572 43.74 336.917 43.665 337.157 43.515C337.407 43.365 337.532 43.155 337.532 42.885C337.532 42.655 337.447 42.475 337.277 42.345C337.107 42.205 336.817 42.085 336.407 41.985L335.147 41.7C333.767 41.4 333.077 40.695 333.077 39.585C333.077 39.125 333.207 38.72 333.467 38.37C333.727 38.01 334.092 37.73 334.562 37.53C335.032 37.33 335.577 37.23 336.197 37.23C336.737 37.23 337.257 37.315 337.757 37.485C338.257 37.645 338.697 37.88 339.077 38.19L338.522 39.465C337.762 38.905 336.982 38.625 336.182 38.625C335.752 38.625 335.417 38.705 335.177 38.865C334.937 39.025 334.817 39.245 334.817 39.525C334.817 39.745 334.887 39.92 335.027 40.05C335.177 40.18 335.427 40.29 335.777 40.38L337.067 40.665C337.817 40.835 338.362 41.1 338.702 41.46C339.052 41.81 339.227 42.27 339.227 42.84C339.227 43.54 338.947 44.095 338.387 44.505C337.827 44.915 337.062 45.12 336.092 45.12ZM343.144 38.835V42.225C343.144 43.115 343.559 43.56 344.389 43.56C344.619 43.56 344.869 43.52 345.139 43.44V44.925C344.809 45.045 344.409 45.105 343.939 45.105C343.079 45.105 342.419 44.865 341.959 44.385C341.499 43.905 341.269 43.215 341.269 42.315V38.835H339.814V37.425H341.269V35.58L343.144 34.95V37.425H345.154V38.835H343.144ZM348.669 42.9V44.28C348.669 44.81 348.579 45.29 348.399 45.72C348.219 46.15 347.914 46.58 347.484 47.01L346.719 46.395C347.189 45.895 347.459 45.43 347.529 45H346.569V42.9H348.669ZM217.795 68.12C216.425 68.12 215.335 67.8 214.525 67.16L215.05 65.84C215.86 66.44 216.785 66.74 217.825 66.74C218.275 66.74 218.62 66.665 218.86 66.515C219.11 66.365 219.235 66.155 219.235 65.885C219.235 65.655 219.15 65.475 218.98 65.345C218.81 65.205 218.52 65.085 218.11 64.985L216.85 64.7C215.47 64.4 214.78 63.695 214.78 62.585C214.78 62.125 214.91 61.72 215.17 61.37C215.43 61.01 215.795 60.73 216.265 60.53C216.735 60.33 217.28 60.23 217.9 60.23C218.44 60.23 218.96 60.315 219.46 60.485C219.96 60.645 220.4 60.88 220.78 61.19L220.225 62.465C219.465 61.905 218.685 61.625 217.885 61.625C217.455 61.625 217.12 61.705 216.88 61.865C216.64 62.025 216.52 62.245 216.52 62.525C216.52 62.745 216.59 62.92 216.73 63.05C216.88 63.18 217.13 63.29 217.48 63.38L218.77 63.665C219.52 63.835 220.065 64.1 220.405 64.46C220.755 64.81 220.93 65.27 220.93 65.84C220.93 66.54 220.65 67.095 220.09 67.505C219.53 67.915 218.765 68.12 217.795 68.12ZM229.434 60.425V68H227.604V66.83C227.364 67.25 227.044 67.57 226.644 67.79C226.244 68.01 225.784 68.12 225.264 68.12C223.414 68.12 222.489 67.08 222.489 65V60.425H224.349V65.015C224.349 65.565 224.459 65.97 224.679 66.23C224.909 66.49 225.259 66.62 225.729 66.62C226.279 66.62 226.719 66.44 227.049 66.08C227.379 65.72 227.544 65.24 227.544 64.64V60.425H229.434ZM231.47 60.425H233.33V68H231.47V60.425ZM233.435 56.99V58.835H231.35V56.99H233.435ZM237.766 61.835V65.225C237.766 66.115 238.181 66.56 239.011 66.56C239.241 66.56 239.491 66.52 239.761 66.44V67.925C239.431 68.045 239.031 68.105 238.561 68.105C237.701 68.105 237.041 67.865 236.581 67.385C236.121 66.905 235.891 66.215 235.891 65.315V61.835H234.436V60.425H235.891V58.58L237.766 57.95V60.425H239.776V61.835H237.766ZM247.694 64.31H242.474C242.514 65.12 242.714 65.72 243.074 66.11C243.444 66.49 243.989 66.68 244.709 66.68C245.539 66.68 246.309 66.41 247.019 65.87L247.559 67.16C247.199 67.45 246.754 67.685 246.224 67.865C245.704 68.035 245.174 68.12 244.634 68.12C243.394 68.12 242.419 67.77 241.709 67.07C240.999 66.37 240.644 65.41 240.644 64.19C240.644 63.42 240.799 62.735 241.109 62.135C241.419 61.535 241.854 61.07 242.414 60.74C242.974 60.4 243.609 60.23 244.319 60.23C245.359 60.23 246.179 60.57 246.779 61.25C247.389 61.92 247.694 62.845 247.694 64.025V64.31ZM244.364 61.58C243.864 61.58 243.454 61.73 243.134 62.03C242.824 62.32 242.624 62.745 242.534 63.305H246.059C245.999 62.735 245.824 62.305 245.534 62.015C245.254 61.725 244.864 61.58 244.364 61.58ZM257.448 61.175C258.118 61.175 258.708 61.32 259.218 61.61C259.728 61.89 260.123 62.29 260.403 62.81C260.683 63.32 260.823 63.91 260.823 64.58C260.823 65.28 260.663 65.9 260.343 66.44C260.023 66.97 259.563 67.385 258.963 67.685C258.363 67.975 257.668 68.12 256.878 68.12C256.208 68.12 255.548 68.01 254.898 67.79C254.248 67.56 253.713 67.255 253.293 66.875L253.938 65.465C254.908 66.205 255.898 66.575 256.908 66.575C257.578 66.575 258.088 66.41 258.438 66.08C258.798 65.74 258.978 65.26 258.978 64.64C258.978 64.05 258.793 63.58 258.423 63.23C258.063 62.87 257.578 62.69 256.968 62.69C256.548 62.69 256.153 62.77 255.783 62.93C255.413 63.08 255.088 63.305 254.808 63.605H253.638V57.32H260.328V58.82H255.528V61.73C256.068 61.36 256.708 61.175 257.448 61.175ZM265.872 68.135C264.602 68.135 263.632 67.67 262.962 66.74C262.302 65.8 261.972 64.435 261.972 62.645C261.972 60.885 262.302 59.54 262.962 58.61C263.632 57.68 264.602 57.215 265.872 57.215C267.142 57.215 268.107 57.68 268.767 58.61C269.437 59.53 269.772 60.875 269.772 62.645C269.772 64.425 269.437 65.785 268.767 66.725C268.107 67.665 267.142 68.135 265.872 68.135ZM265.872 66.62C266.562 66.62 267.062 66.305 267.372 65.675C267.692 65.035 267.852 64.025 267.852 62.645C267.852 61.285 267.692 60.295 267.372 59.675C267.062 59.045 266.562 58.73 265.872 58.73C265.182 58.73 264.677 59.045 264.357 59.675C264.047 60.295 263.892 61.285 263.892 62.645C263.892 64.025 264.047 65.035 264.357 65.675C264.677 66.305 265.182 66.62 265.872 66.62ZM274.866 68.135C273.596 68.135 272.626 67.67 271.956 66.74C271.296 65.8 270.966 64.435 270.966 62.645C270.966 60.885 271.296 59.54 271.956 58.61C272.626 57.68 273.596 57.215 274.866 57.215C276.136 57.215 277.101 57.68 277.761 58.61C278.431 59.53 278.766 60.875 278.766 62.645C278.766 64.425 278.431 65.785 277.761 66.725C277.101 67.665 276.136 68.135 274.866 68.135ZM274.866 66.62C275.556 66.62 276.056 66.305 276.366 65.675C276.686 65.035 276.846 64.025 276.846 62.645C276.846 61.285 276.686 60.295 276.366 59.675C276.056 59.045 275.556 58.73 274.866 58.73C274.176 58.73 273.671 59.045 273.351 59.675C273.041 60.295 272.886 61.285 272.886 62.645C272.886 64.025 273.041 65.035 273.351 65.675C273.671 66.305 274.176 66.62 274.866 66.62Z" fill="white"/>
<path d="M64.576 42.912L56.8 60H53.224L45.448 42.912H50.128L55.048 54.384L60.04 42.912H64.576ZM65.3191 47.808H69.6631V60H65.3191V47.808ZM69.7351 41.832V45.744H65.1991V41.832H69.7351ZM80.4163 47.472C81.8563 47.472 82.9283 47.912 83.6323 48.792C84.3523 49.656 84.7123 50.968 84.7123 52.728V60H80.3683V52.92C80.3683 52.168 80.2403 51.632 79.9843 51.312C79.7283 50.976 79.3283 50.808 78.7843 50.808C78.1283 50.808 77.6003 51.032 77.2003 51.48C76.8003 51.912 76.6003 52.488 76.6003 53.208V60H72.2563V51.312C72.2563 50 72.1923 48.832 72.0643 47.808H76.1443L76.3603 49.608C76.8243 48.92 77.4003 48.392 78.0883 48.024C78.7763 47.656 79.5523 47.472 80.4163 47.472ZM93.2805 60.192C91.2165 60.192 89.6005 59.632 88.4325 58.512C87.2645 57.392 86.6805 55.864 86.6805 53.928C86.6805 52.648 86.9605 51.52 87.5205 50.544C88.0965 49.568 88.8965 48.816 89.9205 48.288C90.9445 47.744 92.1285 47.472 93.4725 47.472C94.3685 47.472 95.2485 47.608 96.1125 47.88C96.9765 48.136 97.6645 48.488 98.1765 48.936L97.0725 51.936C96.6405 51.584 96.1365 51.304 95.5605 51.096C94.9845 50.888 94.4325 50.784 93.9045 50.784C93.0085 50.784 92.3205 51.04 91.8405 51.552C91.3605 52.064 91.1205 52.824 91.1205 53.832C91.1205 54.856 91.3605 55.632 91.8405 56.16C92.3205 56.672 93.0165 56.928 93.9285 56.928C94.4565 56.928 95.0005 56.824 95.5605 56.616C96.1365 56.408 96.6405 56.128 97.0725 55.776L98.1765 58.728C97.6485 59.192 96.9445 59.552 96.0645 59.808C95.2005 60.064 94.2725 60.192 93.2805 60.192ZM112.424 47.808V60H108.152V58.344C107.8 58.92 107.288 59.376 106.616 59.712C105.944 60.032 105.208 60.192 104.408 60.192C103.368 60.192 102.44 59.936 101.624 59.424C100.808 58.912 100.168 58.184 99.7037 57.24C99.2557 56.28 99.0317 55.176 99.0317 53.928C99.0317 52.664 99.2637 51.544 99.7277 50.568C100.192 49.592 100.832 48.832 101.648 48.288C102.464 47.744 103.384 47.472 104.408 47.472C105.208 47.472 105.936 47.648 106.592 48C107.264 48.336 107.784 48.792 108.152 49.368V47.808H112.424ZM105.752 56.952C106.52 56.952 107.112 56.688 107.528 56.16C107.944 55.632 108.152 54.872 108.152 53.88C108.152 52.872 107.944 52.104 107.528 51.576C107.112 51.032 106.52 50.76 105.752 50.76C105 50.76 104.408 51.04 103.976 51.6C103.544 52.144 103.328 52.92 103.328 53.928C103.328 54.904 103.536 55.656 103.952 56.184C104.368 56.696 104.968 56.952 105.752 56.952ZM122.205 56.688C122.493 56.688 122.877 56.64 123.357 56.544V59.832C122.765 60.072 122.013 60.192 121.101 60.192C119.453 60.192 118.197 59.728 117.333 58.8C116.485 57.872 116.061 56.584 116.061 54.936V51H113.781V47.808H116.061V45.048L120.405 43.656V47.808H123.333V51H120.405V54.936C120.405 55.512 120.573 55.952 120.909 56.256C121.261 56.544 121.693 56.688 122.205 56.688ZM136.245 54.336H128.589C128.669 55.28 128.941 55.96 129.405 56.376C129.869 56.792 130.549 57 131.445 57C132.053 57 132.661 56.904 133.269 56.712C133.877 56.504 134.429 56.224 134.925 55.872L136.029 58.752C135.421 59.2 134.685 59.552 133.821 59.808C132.957 60.064 132.093 60.192 131.229 60.192C129.837 60.192 128.629 59.936 127.605 59.424C126.581 58.912 125.797 58.184 125.253 57.24C124.709 56.28 124.437 55.152 124.437 53.856C124.437 52.624 124.693 51.528 125.205 50.568C125.733 49.592 126.453 48.832 127.365 48.288C128.293 47.744 129.349 47.472 130.533 47.472C131.685 47.472 132.693 47.728 133.557 48.24C134.421 48.752 135.085 49.488 135.549 50.448C136.013 51.392 136.245 52.496 136.245 53.76V54.336ZM130.653 50.448C129.581 50.448 128.909 51.072 128.637 52.32H132.525C132.365 51.072 131.741 50.448 130.653 50.448ZM144.303 60.192C142.239 60.192 140.623 59.632 139.455 58.512C138.287 57.392 137.703 55.864 137.703 53.928C137.703 52.648 137.983 51.52 138.543 50.544C139.119 49.568 139.919 48.816 140.943 48.288C141.967 47.744 143.151 47.472 144.495 47.472C145.391 47.472 146.271 47.608 147.135 47.88C147.999 48.136 148.687 48.488 149.199 48.936L148.095 51.936C147.663 51.584 147.159 51.304 146.583 51.096C146.007 50.888 145.455 50.784 144.927 50.784C144.031 50.784 143.343 51.04 142.863 51.552C142.383 52.064 142.143 52.824 142.143 53.832C142.143 54.856 142.383 55.632 142.863 56.16C143.343 56.672 144.039 56.928 144.951 56.928C145.479 56.928 146.023 56.824 146.583 56.616C147.159 56.408 147.663 56.128 148.095 55.776L149.199 58.728C148.671 59.192 147.967 59.552 147.087 59.808C146.223 60.064 145.295 60.192 144.303 60.192ZM158.766 47.472C160.206 47.472 161.278 47.912 161.982 48.792C162.702 49.656 163.062 50.968 163.062 52.728V60H158.718V52.92C158.718 52.168 158.59 51.632 158.334 51.312C158.078 50.976 157.678 50.808 157.134 50.808C156.478 50.808 155.95 51.032 155.55 51.48C155.15 51.912 154.95 52.488 154.95 53.208V60H150.606V42.336H154.95V49.296C155.894 48.08 157.166 47.472 158.766 47.472ZM178.35 56.424V60H166.494V56.424H170.166V47.808L166.734 49.776V45.912L172.014 42.912H174.654V56.424H178.35Z" fill="white"/>
</svg>
