<svg width="19" height="20" viewBox="0 0 19 20" fill="none" xmlns="http://www.w3.org/2000/svg">
<g>
<path fill-rule="evenodd" clip-rule="evenodd" d="M13.7413 0.199951H5.10025C2.28792 0.199951 0 2.48788 0 5.3002V13.9414C0 16.7536 2.28792 19.0415 5.10025 19.0415H13.7415C16.5537 19.0415 18.8416 16.7536 18.8416 13.9414V5.3002C18.8416 2.48788 16.5537 0.199951 13.7413 0.199951ZM9.4208 14.7726C6.58001 14.7726 4.26894 12.4615 4.26894 9.62075C4.26894 6.77996 6.58001 4.46889 9.4208 4.46889C12.2616 4.46889 14.5727 6.77996 14.5727 9.62075C14.5727 12.4615 12.2616 14.7726 9.4208 14.7726ZM13.984 4.248C13.984 4.85679 14.4792 5.35195 15.0879 5.35195C15.6967 5.35195 16.192 4.85679 16.192 4.248C16.192 3.63922 15.6967 3.14395 15.0879 3.14395C14.4792 3.14395 13.984 3.63922 13.984 4.248Z" fill="white"/>
<path d="M9.4207 6.42065C7.6563 6.42065 6.2207 7.85614 6.2207 9.62065C6.2207 11.3851 7.6563 12.8207 9.4207 12.8207C11.1852 12.8207 12.6207 11.3851 12.6207 9.62065C12.6207 7.85614 11.1852 6.42065 9.4207 6.42065Z" fill="white"/>
</g>
</svg>
