<svg width="101" height="34" viewBox="0 0 101 34" fill="none" xmlns="http://www.w3.org/2000/svg">
<path fill-rule="evenodd" clip-rule="evenodd" d="M26.4431 13.249C24.7096 6.62413 19.0723 1.76523 12.1363 1.76523H0V32.2359H12.1363C19.0719 32.2359 25.1396 27.3763 26.4401 20.7523L43.3469 34L60.2537 20.7523V32.2359H79.3244V26.0522H66.7561V1.76542H59.8184V13.2452L43.7793 26.4967L40.3103 23.4038L48.1159 17.2199L56.3496 10.596L51.5829 6.62394L35.5438 19.4277L32.0768 16.3358L48.1159 3.97205L43.3456 0L26.4431 13.249ZM11.7053 7.94526C12.789 7.94526 13.8462 8.19701 14.8215 8.65241C15.7968 9.10782 16.6881 9.76907 17.4467 10.5971C18.2053 11.4251 18.8299 12.417 19.2633 13.5348C19.6968 14.6526 19.939 15.8963 19.939 17.2211C19.939 18.4355 19.722 19.622 19.3224 20.7192C18.9228 21.8163 18.3407 22.8237 17.6092 23.6794C16.8777 24.535 15.9981 25.2395 15.0025 25.7294C14.0069 26.2193 12.8973 26.493 11.7054 26.493H6.50295V7.9454L11.7053 7.94526ZM81.9271 32.2365H101L101 26.0526H88.8627V1.76581H81.9271V32.2365Z" fill="black"/>
</svg>
