<svg width="10" height="19" viewBox="0 0 10 19" fill="none" xmlns="http://www.w3.org/2000/svg">
<g opacity="0.4">
<path d="M2.52194 4.25901V3.54687C2.52194 3.13993 2.72424 2.83473 2.92653 2.42779C3.12883 2.02086 3.53343 1.71566 4.14033 1.30872C4.64607 1.00352 5.45527 0.800049 6.46676 0.800049H9.4001V3.95381H7.27596C7.07366 3.95381 6.87136 4.05554 6.66906 4.15727C6.46676 4.36074 6.36561 4.46248 6.36561 4.56421V6.59889H9.4001C9.4001 7.00583 9.29895 7.41277 9.29895 7.71797L9.1978 8.63357C9.1978 8.93878 9.09665 9.24398 9.09665 9.54918H6.46676V18.4H2.52194V9.54918H0.600098V6.49716H2.52194V4.25901Z" fill="white"/>
</g>
</svg>
