<svg width="219" height="48" viewBox="0 0 219 48" fill="none" xmlns="http://www.w3.org/2000/svg">
<path d="M213.791 46.8H204.76L209.769 20.304L202.899 23.8182L202.8 20.001L214.04 13.2H218.4L213.791 46.8V46.8Z" fill="white"/>
<path d="M40.8 25.2L36.6324 46.8H30L34.1709 25.2H40.8V25.2Z" fill="white"/>
<path d="M38.5578 14.4002C40.8497 14.4002 41.9968 15.3099 41.9992 17.1292C42.0192 18.1299 41.6845 19.1099 41.0446 19.9243C40.1569 21.0414 38.8449 21.6 37.1087 21.6C34.7661 21.6 33.5971 20.6757 33.6017 18.827C33.5669 17.6521 34.0749 16.5176 35.0024 15.6987C35.9526 14.8563 37.2306 14.3895 38.5578 14.4002" fill="white"/>
<path d="M51.3606 25.7138L50.249 31.2765C50.8102 29.8788 51.6457 28.5989 52.7095 27.5069C54.3408 25.969 56.3902 25.2 58.8575 25.2C61.3248 25.2 63.0465 25.9374 64.0226 27.412C64.5524 28.278 64.8212 29.2697 64.7987 30.2752C64.7649 31.3328 64.6322 32.3853 64.4021 33.4199L61.6908 46.8H54.8616L57.6374 33.2072C57.869 32.1734 58.0096 31.1225 58.0576 30.0658C58.0845 29.4604 57.8753 28.8673 57.4713 28.4035C57.0922 27.975 56.5331 27.7345 55.9496 27.7491C52.9626 27.7491 50.8703 30.705 49.6728 36.6168L47.6088 46.7869H40.8L45.0805 25.7007L51.3606 25.7138Z" fill="white"/>
<path d="M83.0586 40.4574H85.7726C85.3727 41.9891 84.6382 43.4162 83.6206 44.6391C81.6468 46.8909 78.8505 48.0112 75.2319 47.9999C72.262 47.9999 69.9775 47.2996 68.3784 45.899C66.7792 44.4983 65.9865 42.484 66.0002 39.8561C65.9985 37.7986 66.3674 35.7572 67.0899 33.8268C67.7111 32.0429 68.7005 30.4051 69.9958 29.0169C72.5087 26.4723 75.7231 25.2 79.6387 25.2C82.8964 25.2 85.1695 26.1525 86.458 28.0576C87.2243 29.2143 87.6218 30.5708 87.5991 31.9522C87.5912 32.5193 87.5315 33.0845 87.4209 33.641H80.9066C81.1391 32.4975 81.2619 31.3349 81.2733 30.1687C81.2733 28.1826 80.5411 27.1895 79.0767 27.1895C78.2178 27.2043 77.4011 27.5599 76.8116 28.1758C75.9618 28.9932 75.1177 30.8353 74.2792 33.7018C73.4408 36.5684 73.0308 39.0455 73.049 41.1329C73.049 42.7092 73.3997 43.9106 74.101 44.737C74.7539 45.5046 75.7312 45.9301 76.7465 45.8888C78.1722 45.8738 79.5414 45.3368 80.5879 44.3823C81.7826 43.3391 82.6404 41.9732 83.0552 40.454" fill="white"/>
<path fill-rule="evenodd" clip-rule="evenodd" d="M100.691 44.7906C101.618 43.8885 102.382 42.8401 102.953 41.6894L102.057 46.1938H108.5L111.189 32.7576C111.444 31.5688 111.582 30.3587 111.6 29.1441C111.6 25.7147 108.778 24 103.134 24C99.4639 24.0022 96.7094 24.7167 94.8707 26.1434C93.3671 27.2873 92.3277 28.917 91.9382 30.7415H98.5663L98.6792 30.3363C99.0351 28.7511 99.5312 27.6035 100.168 26.8935C100.809 26.1853 101.741 25.7967 102.707 25.8353C104.277 25.8353 105.057 26.6859 105.057 28.3604C105.02 29.1378 104.916 29.9108 104.746 30.6712L104.253 33.126C98.6096 33.2823 94.7875 33.9253 92.7868 35.0551C91.5641 35.7232 90.5531 36.7081 89.8646 37.9017C89.1528 39.1255 88.7856 40.5123 88.8004 41.9205C88.8095 43.4901 89.3342 44.6957 90.3745 45.5374C91.4147 46.3791 92.8975 46.8 94.8228 46.8C97.2432 46.8 99.1993 46.1302 100.691 44.7906ZM103.915 34.8072C103.916 34.8072 103.917 34.8072 103.918 34.8072V34.7938C103.917 34.7983 103.916 34.8028 103.915 34.8072ZM97.5569 36.5454C98.7792 35.387 100.899 34.8076 103.915 34.8072C103.214 38.0682 102.617 40.1602 102.125 41.0833C100.989 43.1797 99.5997 44.228 97.9572 44.228C96.4949 44.228 95.7638 43.3349 95.7638 41.5488C95.7687 40.5812 95.9435 39.6217 96.2805 38.7122C96.5339 37.9051 96.9702 37.1644 97.5569 36.5454Z" fill="white"/>
<path d="M114.423 25.5502H117.393L118.516 19.7447L125.598 18L124.144 25.5502H129.6L129.156 27.7302H123.727L121.173 40.9124C120.987 41.7394 120.875 42.5817 120.837 43.4291C120.837 44.8462 121.467 45.5558 122.726 45.5581C123.796 45.4811 124.852 45.2698 125.871 44.9289L125.454 47.1293C123.512 47.6717 121.511 47.9642 119.497 48C117.21 48 115.67 47.3141 114.877 45.9424C114.405 45.1383 114.162 44.2179 114.175 43.2828C114.211 42.2084 114.344 41.1395 114.571 40.0893L116.97 27.7302H114L114.423 25.5502Z" fill="white"/>
<path fill-rule="evenodd" clip-rule="evenodd" d="M134.187 36.9295H148.434C148.654 35.7767 148.776 34.6071 148.8 33.4332C148.8 30.1998 147.85 27.9715 145.949 26.7481C144.236 25.6856 142.256 25.1491 140.249 25.2038C137.963 25.1862 135.71 25.7616 133.705 26.8751C132.302 27.6835 131.091 28.795 130.16 30.1307C129.201 31.4782 128.469 32.9769 127.992 34.5663C127.473 36.1985 127.206 37.9021 127.2 39.6169C127.2 42.7723 128.179 45.0085 130.137 46.3255C131.894 47.4672 133.948 48.0493 136.035 47.9967C139.566 47.999 142.426 46.9282 144.615 44.7845C145.684 43.7022 146.535 42.4193 147.12 41.0074H144.553C143.873 42.4556 142.844 43.7066 141.559 44.6441C140.392 45.495 138.991 45.9523 137.553 45.9511C134.99 45.9533 133.708 44.4469 133.708 41.4319C133.73 39.9194 133.891 38.4122 134.187 36.9295ZM142.427 31.177C142.411 32.4785 142.274 33.7755 142.018 35.051H134.566C135.69 29.7408 137.463 27.0857 139.883 27.0857C141.579 27.0857 142.427 28.4494 142.427 31.177Z" fill="white"/>
<path d="M167.059 40.4574H169.773C169.372 41.9893 168.636 43.4165 167.617 44.6391C165.643 46.8909 162.848 48.0112 159.232 47.9999C156.262 47.9999 153.978 47.2996 152.378 45.899C150.779 44.4983 149.986 42.484 150 39.8561C149.998 37.7986 150.367 35.7572 151.09 33.8268C151.71 32.0423 152.699 30.4043 153.996 29.0169C156.509 26.4723 159.722 25.2 163.635 25.2C166.898 25.2 169.171 26.1525 170.455 28.0576C171.222 29.214 171.621 30.5704 171.599 31.9522C171.592 32.5194 171.531 33.0848 171.418 33.641H164.907C165.147 32.4983 165.278 31.3357 165.297 30.1687C165.297 28.1826 164.564 27.1895 163.101 27.1895C162.242 27.2043 161.425 27.5599 160.836 28.1758C159.981 28.9932 159.136 30.8353 158.3 33.7018C157.464 36.5684 157.044 39.0455 157.042 41.1329C157.042 42.7092 157.394 43.9106 158.098 44.737C158.751 45.5046 159.728 45.9301 160.743 45.8888C162.174 45.8792 163.549 45.3445 164.602 44.3891C165.794 43.344 166.652 41.9789 167.069 40.4608" fill="white"/>
<path d="M181.814 29.2969C183.585 26.1098 186.205 24.5151 189.671 24.5129C192.132 24.5129 193.843 25.2826 194.803 26.822C195.351 27.7529 195.627 28.819 195.598 29.8987C195.55 31.061 195.401 32.217 195.155 33.354L192.521 46.8H185.729L188.542 32.4175C188.736 31.4749 188.839 30.516 188.85 29.5538C188.85 27.9039 188.156 27.079 186.77 27.079C185.265 27.079 183.981 27.8397 182.919 29.3611C181.858 30.8825 181.04 33.1523 180.465 36.1703L178.382 46.8H171.6L178.419 12H185.212L181.814 29.2969Z" fill="white"/>
<path d="M13.3019 46.8L0 12.5126H9.98577L15.2698 41.9123L21.1155 4.79999H31.2L21.8237 46.7833L13.3019 46.8V46.8Z" fill="white"/>
<path d="M14.4 6L26.1722 0L37.2 6H31.9788" fill="white"/>
</svg>
