<svg width="74" height="74" viewBox="0 0 74 74" fill="none" xmlns="http://www.w3.org/2000/svg">
<path fill-rule="evenodd" clip-rule="evenodd" d="M35.4807 73.1177C35.842 73.1282 36.2039 73.1348 36.5674 73.1348C56.7631 73.1348 73.1348 56.7628 73.1348 36.5675C73.1348 16.3717 56.7631 0 36.5674 0C36.0165 0 35.4692 0.0142206 34.9239 0.0384295L27.4435 20.5974H33.9581C37.8342 20.5974 39.9228 23.5803 38.5955 27.2264L29.3694 52.5814L21.6223 52.58L31.5228 25.4033H25.6984L15.798 52.58L8.04804 52.5794L19.6898 20.5974H19.6919L26.6947 1.34994C11.2954 5.65794 0 19.7929 0 36.5675C0 53.8399 11.9765 68.314 28.078 72.1419L34.8648 53.4937H34.8692L46.8408 20.5974H61.1087C64.9884 20.5974 67.0768 23.5803 65.7504 27.2264L57.6426 49.4962C57.0251 51.1917 55.0436 52.5794 53.2384 52.5794H42.9538L35.4807 73.1177ZM52.8698 25.3838H58.6927L50.5385 47.7572H44.7155L52.8698 25.3838Z" fill="black"/>
</svg>
