<svg width="17" height="16" viewBox="0 0 17 16" fill="none" xmlns="http://www.w3.org/2000/svg">
<g opacity="0.4">
<path fill-rule="evenodd" clip-rule="evenodd" d="M2.00755 0C0.739623 0 0 0.842105 0 1.89474C0 2.94737 0.739623 3.78947 2.00755 3.78947C3.27547 3.78947 4.01509 2.94737 4.01509 1.89474C3.90943 0.736842 3.16981 0 2.00755 0ZM16.8 9.78947V16H13.2075V10.2105C13.2075 8.73684 12.6792 7.78947 11.4113 7.78947C10.4604 7.78947 9.82641 8.42105 9.50943 9.15789C9.40377 9.36842 9.40377 9.68421 9.40377 10V16H5.70566V5.15789H9.29811V6.73684C9.82641 6 10.6717 4.94737 12.5736 4.94737C15.0038 4.94737 16.8 6.52632 16.8 9.78947ZM3.69811 16H0.10566V5.15789H3.69811V16Z" fill="white"/>
</g>
</svg>
