<svg width="71" height="76" viewBox="0 0 71 76" fill="none" xmlns="http://www.w3.org/2000/svg">
<path fill-rule="evenodd" clip-rule="evenodd" d="M69.0661 45.072L70.9297 59.2171C71.4646 63.2782 68.8968 67.1316 64.9568 68.1805L62.0311 68.9595V70.8047C62.0311 73.6694 59.7121 76 56.8618 76H16.3935C13.5432 76 11.2242 73.6694 11.2242 70.8047V69.6672L6.04486 68.2882C1.85728 67.1733 -0.719696 62.9636 0.178286 58.7044L3.35977 43.6105C5.07037 35.4969 11.2146 29.2058 19.03 27.2153C18.5024 26.0956 18.1834 25.2789 18.0314 24.8642C17.7086 24.2315 17.6951 23.46 18.0489 22.7972C20.945 14.3549 27.6663 0 36.6276 0C45.5923 0 52.302 14.3302 55.2067 22.7978C55.5602 23.4603 55.5469 24.2314 55.2241 24.8639C55.0667 25.2933 54.7303 26.1541 54.168 27.3364C61.9048 29.7273 67.9355 36.4896 69.0661 45.072ZM15.655 62.4922H57.6003V42.3047H15.655V62.4922ZM31.8682 37.8516C26.2111 31.9672 23.4855 26.4136 22.5369 24.187C23.4047 23.283 24.6285 22.6275 26.0759 22.1485L27.3174 27.9809C28.2509 32.3655 32.1665 35.5477 36.6276 35.5477C41.0888 35.5477 45.0044 32.3655 45.9379 27.9808L47.1794 22.1484C48.6266 22.6272 49.8503 23.2827 50.7181 24.1866C48.9823 28.2615 45.759 33.3037 41.387 37.8514H31.8682V37.8516ZM42.8435 21.2324C38.6472 20.7005 34.4723 20.7177 30.4121 21.2324L31.6503 27.0492C32.1494 29.3931 34.2428 31.0945 36.6278 31.0945C39.0128 31.0945 41.1062 29.3933 41.6052 27.0492L42.8435 21.2324ZM36.6276 4.45312C41.5797 4.45312 46.3513 13.3288 48.4385 17.8677C42.2804 15.8892 30.9686 15.8913 24.817 17.8677C26.9018 13.334 31.6743 4.45312 36.6276 4.45312ZM4.51282 59.6272C4.10489 61.5633 5.27611 63.4768 7.17945 63.9835L11.2242 65.0603V41.5624C11.2242 39.5161 12.8806 37.8514 14.9166 37.8514H25.9121C23.938 35.4777 22.3999 33.2334 21.2244 31.288C14.5196 32.5363 9.11336 37.803 7.69475 44.5333L4.51282 59.6272ZM57.6003 70.8047C57.6003 71.2139 57.269 71.5469 56.8618 71.5469H16.3935C15.9863 71.5469 15.655 71.2139 15.655 70.8047V66.9453H57.6003V70.8047ZM62.0311 64.3529L63.8222 63.8759C65.6131 63.399 66.7803 61.6474 66.5371 59.8013L64.6735 45.6564C63.7609 38.7303 58.644 33.0483 51.993 31.3501C50.8224 33.2813 49.2961 35.503 47.343 37.8516H58.3387C60.3747 37.8516 62.0311 39.5163 62.0311 41.5625V64.3529Z" fill="#3C4D9A"/>
<path d="M39.9878 50H33.0122C31.9009 50 31 51.3432 31 53C31 54.6568 31.9009 56 33.0122 56H39.9878C41.0991 56 42 54.6568 42 53C42 51.3432 41.0992 50 39.9878 50Z" fill="#3C4D9A"/>
</svg>
