<svg width="74" height="72" viewBox="0 0 74 72" fill="none" xmlns="http://www.w3.org/2000/svg">
<path fill-rule="evenodd" clip-rule="evenodd" d="M7.94922 0H66.0508C70.434 0 74 3.60336 74 8.03245V53.7444C74 58.1735 70.434 61.7769 66.0508 61.7769H45.8164V67.6187H53.9102C55.1075 67.6187 56.0781 68.5995 56.0781 69.8093C56.0781 71.0192 55.1075 72 53.9102 72H19.8008C18.6035 72 17.6328 71.0192 17.6328 69.8093C17.6328 68.5995 18.6035 67.6187 19.8008 67.6187H27.8945V61.7769H7.94922C3.56602 61.7769 0 58.1735 0 53.7444V8.03245C0 3.60336 3.56602 0 7.94922 0ZM66.0508 4.38134H7.94922C5.95686 4.38134 4.33594 6.01923 4.33594 8.03245V46.4422H69.6641V8.03245C69.6641 6.01923 68.0431 4.38134 66.0508 4.38134ZM41.4805 67.6187H32.2305V61.7769H41.4805V67.6187ZM7.94922 57.3955H66.0508C68.0431 57.3955 69.6641 55.7576 69.6641 53.7444V50.8235H4.33594V53.7444C4.33594 55.7576 5.95686 57.3955 7.94922 57.3955Z" fill="#3C4D9A"/>
<path fill-rule="evenodd" clip-rule="evenodd" d="M46.8947 42H27.1053C25.9426 42 25 41.0258 25 39.8242V24.7385C25 23.5368 25.9426 22.5626 27.1053 22.5626H28.6491V17.5582C28.6491 12.8392 32.3638 9 36.9298 9C41.4957 9 45.2105 12.8392 45.2105 17.5582C45.2105 18.7599 44.2679 19.7341 43.1053 19.7341C41.9426 19.7341 41 18.7599 41 17.5582C41 15.2387 39.174 13.3516 36.9298 13.3516C34.6855 13.3516 32.8596 15.2387 32.8596 17.5582V22.5626H46.8947C48.0574 22.5626 49 23.5368 49 24.7385V39.8242C49 41.0258 48.0574 42 46.8947 42ZM29.2105 37.6484H44.7895V26.9143H29.2105V37.6484Z" fill="#3C4D9A"/>
</svg>
