<svg width="74" height="74" viewBox="0 0 74 74" fill="none" xmlns="http://www.w3.org/2000/svg">
<path fill-rule="evenodd" clip-rule="evenodd" d="M73.8862 0H0V73.8862H73.8862V0ZM36.4972 61.3556C41.0961 61.509 45.0831 59.3009 45.0831 54.0117C45.0831 49.4765 42.0597 47.9257 38.9096 46.31C38.6935 46.1991 38.4768 46.088 38.2604 45.9755C37.0168 45.329 35.3442 44.4475 35.3442 42.7498C35.3442 40.5775 37.2024 39.916 39.01 39.916C40.6426 39.916 41.5111 40.2042 43.4988 41.0163L44.0462 37.2667C42.2208 36.593 40.402 36.3169 38.8789 36.3169C34.6885 36.3169 31.3077 38.6264 31.3077 43.0543C31.3077 47.1607 34.1131 48.5614 36.9428 49.9742C37.3402 50.1726 37.7381 50.3712 38.1287 50.5776C39.5635 51.3341 41.0471 52.284 41.0471 54.2143C41.0471 56.7205 38.9706 57.7253 36.8923 57.7589C35.3014 57.7844 33.4015 57.1031 31.9356 56.4745L31.5427 60.2819C33.2748 60.8706 34.8646 61.3006 36.4972 61.3556ZM25.0462 60.226C23.5445 60.7476 21.2452 61.3631 17.5766 61.3631C10.0483 61.3631 5.00923 56.4251 5.00923 48.7387C5.00923 41.2804 10.3581 36.3169 17.6103 36.3169C21.0541 36.3169 22.5894 36.8357 24.7654 37.5976L24.438 41.7754C22.4353 40.4473 20.7306 39.9164 17.7774 39.9164C12.5912 39.9164 9.12913 43.7248 9.15366 48.8394C9.17819 54.3431 12.9466 57.7648 17.6103 57.7648C19.0007 57.7648 20.1823 57.6617 21.0312 57.4354V51.1651H16.5462V47.6317H25.0462V60.226ZM63.8677 48.84L58.2337 36.3169L52.5969 48.84H56.5219L58.2337 44.6784L59.9421 48.84H63.8677ZM63.9764 50.0923L68.8769 61.3631H65.026L61.3631 52.6113L63.9764 50.0923ZM55.6169 52.6105L52.8252 50.0923L47.5877 61.3631H51.6054L61.3631 56.7646L58.5102 54.6486L53.5545 57.1511L55.6169 52.6105Z" fill="black"/>
</svg>
