<svg width="63" height="72" viewBox="0 0 63 72" fill="none" xmlns="http://www.w3.org/2000/svg">
<path fill-rule="evenodd" clip-rule="evenodd" d="M33.9039 0.966213C38.4395 6.90382 52.9204 8.51481 60.8782 8.51481C62.0502 8.51481 63 9.46291 63 10.6322V44.5096C63 64.7497 32.7792 72.3603 31.0507 71.987C17.667 69.0887 0 59.7675 0 44.5096V10.6322C0 9.46277 0.949983 8.51481 2.12176 8.51481C10.6708 8.51481 25.1846 6.74041 30.5251 0.804353C31.446 -0.344833 33.133 -0.237677 33.9039 0.966213ZM31.5001 67.7415C35.0854 66.8575 58.7565 60.4106 58.7565 44.5096H58.7566V12.7258C50.0393 12.5287 38.5927 10.8694 32.0475 5.11408C28.7989 7.65742 20.628 12.3494 4.24366 12.7254V44.5096C4.24366 60.4104 27.9146 66.8575 31.5001 67.7415Z" fill="#3C4D9A"/>
<path fill-rule="evenodd" clip-rule="evenodd" d="M21.2924 33.8889V27.4852C21.2924 21.8942 25.8249 17.0001 32.0647 17C37.9331 17 42.7076 21.7036 42.7076 27.4851C42.7076 28.6511 41.7481 29.5962 40.5647 29.5962C39.3813 29.5962 38.4219 28.6509 38.4219 27.4851C38.4219 24.0317 35.57 21.2222 32.0647 21.2222C28.2256 21.2222 25.5781 24.1861 25.5781 27.4851V33.8888H44.8571C46.0406 33.8888 47 34.8341 47 35.9999V52.8889C47 54.0548 46.0406 55 44.8571 55H19.1429C17.9594 55 17 54.0547 17 52.8889V36.0001C17 34.8341 17.9594 33.8889 19.1429 33.8889H21.2924ZM21.2857 50.7776H42.7143V38.1109H21.2857V50.7776Z" fill="#3C4D9A"/>
<path d="M31.5 47C32.8807 47 34 45.8807 34 44.5C34 43.1193 32.8807 42 31.5 42C30.1193 42 29 43.1193 29 44.5C29 45.8807 30.1193 47 31.5 47Z" fill="#3C4D9A"/>
</svg>
