<svg width="88" height="82" viewBox="0 0 88 82" fill="none" xmlns="http://www.w3.org/2000/svg">
<path fill-rule="evenodd" clip-rule="evenodd" d="M85.4117 35.5078H25.8823V22.584C25.8823 21.157 24.7235 20 23.294 20C21.8646 20 20.7058 21.157 20.7058 22.584V35.5078H2.58827C1.15878 35.5078 0 36.6648 0 38.0919V63.9117C0 65.3388 1.15878 66.4958 2.58827 66.4958H41.4117V68.992C41.4117 72.4096 43.6136 75.3237 46.6756 76.3942L46.6745 79.4151C46.674 80.8413 47.8332 82 49.2628 82H69.9686C71.3981 82 72.5569 80.843 72.5569 79.416V76.3837C75.5212 75.321 77.6471 72.4866 77.6471 69.166V66.4958H85.4117C86.8412 66.4958 88 65.3388 88 63.9117V38.0919C88 36.6648 86.8412 35.5078 85.4117 35.5078ZM72.4706 69.166C72.4706 70.5432 71.3482 71.6639 69.9686 71.6639C68.5391 71.6639 67.3803 72.8208 67.3803 74.2479V76.8319H62.1175V74.2479C62.1175 72.8208 60.9587 71.6639 59.5293 71.6639C58.0998 71.6639 56.941 72.8208 56.941 74.2479V76.8319H51.8516L51.8525 74.2487C51.853 72.8225 50.6938 71.6639 49.2642 71.6639C47.7885 71.6639 46.5879 70.4652 46.5879 68.992V63.9117C46.5879 56.7876 52.3933 50.9916 59.5291 50.9916C66.6648 50.9916 72.4702 56.7876 72.4702 63.9117V69.166H72.4706ZM77.4613 61.3277H82.8235H82.8236V40.6759H5.17653V61.3277H41.5974C42.857 52.5735 50.4178 45.8235 59.5293 45.8235C68.6407 45.8235 76.2015 52.5735 77.4613 61.3277Z" fill="#3C4D9A"/>
<path d="M13 51C14.6569 51 16 49.6569 16 48C16 46.3431 14.6569 45 13 45C11.3431 45 10 46.3431 10 48C10 49.6569 11.3431 51 13 51Z" fill="#3C4D9A"/>
<path d="M23 51C24.6569 51 26 49.6569 26 48C26 46.3431 24.6569 45 23 45C21.3431 45 20 46.3431 20 48C20 49.6569 21.3431 51 23 51Z" fill="#3C4D9A"/>
<path d="M34 51C35.6569 51 37 49.6569 37 48C37 46.3431 35.6569 45 34 45C32.3431 45 31 46.3431 31 48C31 49.6569 32.3431 51 34 51Z" fill="#3C4D9A"/>
<path d="M22.5 10C15.6075 10 10 15.604 10 22.4921C10 23.8771 11.1258 25 12.5146 25C13.9034 25 15.0292 23.8771 15.0292 22.4921C15.0292 18.3697 18.3807 15.0158 22.5 15.0158C26.6193 15.0158 29.9708 18.3697 29.9708 22.4921C29.9708 23.8771 31.0966 25 32.4854 25C33.8742 25 35 23.8771 35 22.4921C35 15.604 29.3925 10 22.5 10Z" fill="#3C4D9A"/>
<path d="M3.52081 17.7705C4.80791 18.3678 6.31746 17.7596 6.88886 16.407C9.72654 9.68945 16.0622 5.34895 23.0297 5.34895C29.9396 5.34895 36.255 9.63935 39.119 16.2797C39.6996 17.6259 41.212 18.2242 42.4972 17.6159C43.7823 17.0077 44.3535 15.4235 43.773 14.0774C40.0843 5.52565 31.9422 0 23.0297 0C14.0426 0 5.8739 5.59055 2.21896 14.2427C1.64841 15.5933 2.23134 17.173 3.52081 17.7705Z" fill="#3C4D9A"/>
<path d="M65 67C66.6569 67 68 65.6569 68 64C68 62.3431 66.6569 61 65 61C63.3431 61 62 62.3431 62 64C62 65.6569 63.3431 67 65 67Z" fill="#3C4D9A"/>
<path d="M54 67C55.6569 67 57 65.6569 57 64C57 62.3431 55.6569 61 54 61C52.3431 61 51 62.3431 51 64C51 65.6569 52.3431 67 54 67Z" fill="#3C4D9A"/>
</svg>
