<svg width="82" height="82" viewBox="0 0 82 82" fill="none" xmlns="http://www.w3.org/2000/svg">
<path d="M11.7049 15H17.2951C18.7889 15 20 13.8807 20 12.5C20 11.1193 18.7889 10 17.2951 10H11.7049C10.2111 10 9 11.1193 9 12.5C9 13.8807 10.2111 15 11.7049 15Z" fill="#3C4D9A"/>
<path d="M26.5 15C27.8807 15 29 13.8807 29 12.5C29 11.1193 27.8807 10 26.5 10C25.1193 10 24 11.1193 24 12.5C24 13.8807 25.1193 15 26.5 15Z" fill="#3C4D9A"/>
<path d="M20 30.5C20 29.1193 18.7889 28 17.2951 28H11.7049C10.2111 28 9 29.1193 9 30.5C9 31.8807 10.2111 33 11.7049 33H17.2951C18.7889 33 20 31.8807 20 30.5Z" fill="#3C4D9A"/>
<path d="M26.5 33C27.8807 33 29 31.8807 29 30.5C29 29.1193 27.8807 28 26.5 28C25.1193 28 24 29.1193 24 30.5C24 31.8807 25.1193 33 26.5 33Z" fill="#3C4D9A"/>
<path d="M56.25 15H60.75C61.9926 15 63 13.8807 63 12.5C63 11.1193 61.9926 10 60.75 10H56.25C55.0074 10 54 11.1193 54 12.5C54 13.8807 55.0074 15 56.25 15Z" fill="#3C4D9A"/>
<path d="M69.5 15C70.8807 15 72 13.8807 72 12.5C72 11.1193 70.8807 10 69.5 10C68.1193 10 67 11.1193 67 12.5C67 13.8807 68.1193 15 69.5 15Z" fill="#3C4D9A"/>
<path fill-rule="evenodd" clip-rule="evenodd" d="M79.5835 0H45.7525C44.4179 0 43.336 1.0777 43.336 2.407V40.9199C43.336 42.2492 44.4179 43.3269 45.7525 43.3269H62.668V69.0022H57.835V63.5461C57.835 62.2168 56.753 61.1391 55.4185 61.1391H52.8409V58.7321C52.8409 52.1842 47.493 46.8573 40.9194 46.8573C34.3459 46.8573 28.998 52.1842 28.998 58.7321V61.1391H26.5815C25.247 61.1391 24.165 62.2168 24.165 63.5461V69.0022H19.332V43.3269H36.2475C37.5821 43.3269 38.664 42.2492 38.664 40.9199V2.407C38.664 1.0777 37.5821 0 36.2475 0H2.4165C1.08195 0 0 1.0777 0 2.407V40.9199C0 42.2492 1.08195 43.3269 2.4165 43.3269H14.499V71.4091C14.499 72.7384 15.581 73.8161 16.9155 73.8161H24.165V79.593C24.165 80.9223 25.247 82 26.5815 82H55.4185C56.753 82 57.835 80.9223 57.835 79.593V73.8163H65.0845C66.419 73.8163 67.501 72.7386 67.501 71.4093V43.3269H79.5835C80.9181 43.3269 82 42.2492 82 40.9199V2.407C82 1.0777 80.9181 0 79.5835 0ZM33.4474 5.39474V19.4211H4.31579V5.39474H33.4474ZM33.4474 24.8158H4.31579V38.8421H33.4474V24.8158ZM33.4474 59.0313C33.4474 55.0381 36.5934 51.7895 40.4605 51.7895C44.3276 51.7895 47.4737 55.0381 47.4737 59.0313V61.5H33.4474V59.0313ZM43.31 76.6053H52.8684V65.8158H29.1316V76.6053H38.5307V72.7519C38.5307 71.475 39.6006 70.4399 40.9203 70.4399C42.2401 70.4399 43.31 71.475 43.31 72.7519V76.6053ZM77.6842 5.39474V19.4211H48.5526V5.39474H77.6842ZM48.5526 24.8158V38.8421H77.6842V24.8158H48.5526Z" fill="#3C4D9A"/>
<path d="M60.75 28H56.25C55.0074 28 54 29.1193 54 30.5C54 31.8807 55.0074 33 56.25 33H60.75C61.9926 33 63 31.8807 63 30.5C63 29.1193 61.9926 28 60.75 28Z" fill="#3C4D9A"/>
<path d="M69.5 33C70.8807 33 72 31.8807 72 30.5C72 29.1193 70.8807 28 69.5 28C68.1193 28 67 29.1193 67 30.5C67 31.8807 68.1193 33 69.5 33Z" fill="#3C4D9A"/>
</svg>
