<svg width="78" height="72" viewBox="0 0 78 72" fill="none" xmlns="http://www.w3.org/2000/svg">
<path fill-rule="evenodd" clip-rule="evenodd" d="M75.7104 53.9357H73.4209V41.4714C76.4156 38.1614 77.9694 34.0801 77.9694 29.4037V7.31043C77.9694 6.29748 77.2855 5.40857 76.2963 5.1358C71.6549 3.85594 68.1745 2.8938 65.5595 2.17087L65.5505 2.16839L65.5494 2.16807C57.9119 0.056707 57.6649 -0.0115849 57.4228 0.00282712L57.3982 0.00447633L57.3982 0.00447715C57.3779 0.00592293 57.3559 0.00748244 57.3283 0.00809655C57.3022 0.00772337 57.2852 0.00549207 57.2699 0.00346624L57.2602 0.00222257C57.115 -0.0155871 56.9624 0.0265784 49.881 1.98369C47.1967 2.72556 43.5167 3.74258 38.4642 5.1358C37.475 5.40872 36.7912 6.29763 36.7912 7.31043V8.775H8.54801C6.44384 8.775 4.73195 10.4633 4.73195 12.5384V53.9357H2.28957C1.02512 53.9357 0 54.9467 0 56.1937V65.2262C0 68.9614 3.0813 72 6.86857 72H71.1314C74.9188 72 78 68.9613 78 65.2262V56.1937C78 54.9466 76.9749 53.9357 75.7104 53.9357ZM41.3703 29.4037V26.9647H55.0037V44.3026C47.3451 42.1444 41.3703 37.4144 41.3703 29.4037ZM73.3901 26.9647H59.583V44.3507C67.3343 42.2183 73.3901 37.4615 73.3901 29.4037V26.9647ZM73.3901 22.4486H59.583V5.21648L73.3901 9.02368V22.4486ZM55.0037 22.4486V5.26435L41.3703 9.02368V22.4486H55.0037ZM9.3111 13.2911H36.791V29.4037C36.791 36.4924 40.3591 42.2152 47.1093 45.9534C50.9048 48.0553 56.3932 49.5655 57.6972 49.3852C60.6782 48.9732 65.2322 47.5077 68.8416 45.2524V53.9357H49.456C48.4705 53.9357 47.5955 54.5577 47.2838 55.4798L46.2793 58.4518H31.7207L30.7162 55.4798C30.4045 54.5577 29.5296 53.9357 28.544 53.9357H9.3111V13.2911ZM71.1314 67.4839C72.3936 67.4839 73.4207 66.4711 73.4207 65.2262H73.4209V58.4518H51.1063L50.1017 61.4238C49.7901 62.3458 48.9151 62.9679 47.9296 62.9679H30.0705C29.085 62.9679 28.2101 62.3458 27.8984 61.4238L26.8939 58.4518H4.5793V65.2262C4.5793 66.471 5.60625 67.4839 6.86857 67.4839H71.1314Z" fill="#3C4D9A"/>
</svg>
