<svg width="88" height="72" viewBox="0 0 88 72" fill="none" xmlns="http://www.w3.org/2000/svg">
<path fill-rule="evenodd" clip-rule="evenodd" d="M68.6943 18.0003C65.3049 7.31417 55.3216 0 44 0C30.581 0 19.5149 10.1969 18.2402 23.2017C8.37427 22.3831 0 30.1418 0 39.8571C0 49.0735 7.54703 56.5714 16.8235 56.5714H26.0549V69.4286C26.0549 70.8487 27.2137 72 28.6431 72H59.5294C60.9589 72 62.1177 70.8487 62.1177 69.4286V56.5714H68.5883C79.2918 56.5714 88 47.9198 88 37.2857C88 26.6866 79.3497 18.0571 68.6943 18.0003ZM56.9412 66.8571H31.2314V46.2857H56.9412V66.8571ZM62.1177 51.4286H68.5883C76.4375 51.4286 82.8235 45.084 82.8235 37.2857C82.8235 28.8818 75.4478 22.3015 67.0233 23.2284C65.7106 23.3731 64.4985 22.5115 64.2118 21.2302C62.1278 11.9086 53.6276 5.14286 44 5.14286C32.5827 5.14286 23.294 14.3712 23.294 25.7143C23.294 28.5081 21.2933 29.0858 20.005 28.723C12.5732 26.6301 5.17653 32.1989 5.17653 39.8571C5.17653 46.2377 10.4014 51.4286 16.8236 51.4286H26.055V43.7143C26.055 42.2942 27.2138 41.1429 28.6433 41.1429H31.2316V31.7143C31.2316 24.7193 36.9595 19.0286 44.0002 19.0286C51.0409 19.0286 56.7688 24.7193 56.7688 31.7143V33.4286C56.7688 34.8487 55.61 36 54.1805 36C52.751 36 51.5922 34.8487 51.5922 33.4286V31.7143C51.5922 27.5551 48.1864 24.1714 44 24.1714C39.8136 24.1714 36.4078 27.5551 36.4078 31.7143V41.1429H59.5294C60.9589 41.1429 62.1177 42.2942 62.1177 43.7143V51.4286Z" fill="#3C4D9A"/>
<path d="M44.5 51C43.1193 51 42 52.2313 42 53.75V59.25C42 60.7687 43.1193 62 44.5 62C45.8807 62 47 60.7687 47 59.25V53.75C47 52.2313 45.8807 51 44.5 51Z" fill="#3C4D9A"/>
</svg>
