<svg width="197" height="43" viewBox="0 0 197 43" fill="none" xmlns="http://www.w3.org/2000/svg">
<path fill-rule="evenodd" clip-rule="evenodd" d="M196.457 16.8573V20.3036H192.114V28.7421C192.114 29.8372 192.31 30.578 192.702 31.0289C193.126 31.512 193.714 31.7053 194.563 31.7053C194.791 31.7053 195.085 31.6731 195.412 31.5765C195.804 31.4798 196.032 31.351 196.293 31.19L196.457 31.0611V34.5074L196.424 34.5396C196.163 34.6685 195.706 34.8295 195.085 34.9583C194.498 35.055 193.877 35.1516 193.29 35.1516C189.698 35.1516 187.902 33.2513 187.902 29.4829V20.3036H181.503V34.7007H177.225V20.2714H174.254V16.8573H177.225V14.3772C177.225 13.1211 177.519 12.026 178.074 11.0598C178.629 10.0613 179.38 9.32054 180.392 8.773C181.405 8.28987 182.515 8 183.788 8C184.8 8 185.584 8.12883 186.172 8.32208L186.27 8.35429V11.9938L186.106 11.8972C185.421 11.6073 184.8 11.4785 184.213 11.4785C183.364 11.4785 182.678 11.7362 182.221 12.2515C181.764 12.7668 181.503 13.572 181.503 14.6027V16.8573H187.902V12.8312L188 12.799L192.049 11.6073L192.179 11.5751V16.8573H196.457ZM85.7695 10.0291C86.2593 9.57821 86.847 9.32054 87.5653 9.32054C88.3163 9.32054 88.9367 9.57821 89.3611 10.0291C89.8509 10.5122 90.1121 11.092 90.1121 11.7684C90.1121 12.4447 89.8509 13.0245 89.3611 13.4754C88.904 13.8941 88.2836 14.1518 87.5653 14.1518C86.847 14.1518 86.2593 13.9263 85.7695 13.4754C85.2797 13.0245 85.0185 12.4447 85.0185 11.7684C85.0185 11.0598 85.2797 10.48 85.7695 10.0291ZM68.8889 25.4569L67.7135 28.7421H67.6155C67.4196 28.0013 67.0604 26.8741 66.4727 25.5213L60.1711 9.90029H54V34.7973H58.0814V19.4339C58.0814 18.4677 58.0814 17.3726 58.0487 16.0199C58.0255 15.5395 57.9859 15.1403 57.9532 14.8109C57.9398 14.6765 57.9276 14.5537 57.9181 14.4417H58.0161C58.212 15.4079 58.4405 16.1165 58.6038 16.5674L66.1789 34.7329H69.0522L76.5619 16.4064C76.6867 16.0862 76.8116 15.5211 76.9364 14.9561C76.9748 14.7822 77.0133 14.6084 77.0517 14.4417H77.1496C77.0517 16.2775 76.9864 17.9202 76.9537 18.9186V34.7007H81.2963V9.83587H75.3538L68.8889 25.4569ZM85.4103 16.8573H89.655V34.7007H85.4103V16.8573ZM104.707 16.6962C103.924 16.5352 103.107 16.4386 102.324 16.4386C100.397 16.4386 98.634 16.8573 97.1647 17.6947C95.6954 18.5321 94.52 19.6916 93.769 21.141C92.9854 22.6226 92.5936 24.3296 92.5936 26.2943C92.5936 28.0013 92.9854 29.5151 93.7364 30.9001C94.4874 32.2528 95.5322 33.3479 96.9362 34.0887C98.2749 34.8295 99.8421 35.216 101.605 35.216C103.63 35.216 105.36 34.7973 106.732 34.0243L106.764 33.9921V30.1271L106.601 30.2559C105.981 30.7068 105.262 31.0933 104.544 31.3188C103.793 31.5765 103.107 31.7053 102.52 31.7053C100.822 31.7053 99.483 31.2222 98.5361 30.1593C97.5566 29.1286 97.0668 27.7115 97.0668 25.94C97.0668 24.1041 97.5566 22.6548 98.5687 21.5919C99.5809 20.529 100.92 19.9815 102.552 19.9815C103.924 19.9815 105.328 20.4324 106.601 21.3342L106.764 21.4631V17.3726L106.732 17.3404L106.683 17.3207C106.14 17.1001 105.531 16.8526 104.707 16.6962ZM115.841 17.5659C116.69 16.8895 117.67 16.5674 118.714 16.5674C119.433 16.5674 120.021 16.664 120.314 16.8573L120.412 16.8895V21.0766L120.249 20.9477C120.021 20.7867 119.694 20.6579 119.237 20.529C119.074 20.5076 118.921 20.4825 118.776 20.4586C118.486 20.4109 118.225 20.368 117.963 20.368C116.853 20.368 115.939 20.8511 115.221 21.8174C114.502 22.7514 114.176 24.0397 114.176 25.5857V34.7007H109.931V16.8573H114.176V19.9815H114.209C114.633 18.983 115.123 18.1456 115.841 17.5659ZM130.273 16.4708C127.302 16.4708 124.918 17.3404 123.253 19.0474C121.555 20.7545 120.739 23.1057 120.739 26.0688C120.739 28.8388 121.588 31.0933 123.22 32.736C124.853 34.3464 127.073 35.1838 129.848 35.1838C132.754 35.1838 135.073 34.3142 136.738 32.5749C138.436 30.8357 139.252 28.5167 139.252 25.6501C139.252 22.8158 138.468 20.5612 136.868 18.9186C135.334 17.276 133.081 16.4708 130.273 16.4708ZM130.11 31.6731C131.644 31.6731 132.885 31.19 133.669 30.1915C134.485 29.1931 134.844 27.6793 134.909 25.7468C134.909 23.8465 134.452 22.3971 133.603 21.3986C132.754 20.4002 131.579 19.9171 130.077 19.9171C128.542 19.9171 127.334 20.4324 126.453 21.4631C125.604 22.4937 125.147 23.9431 125.147 25.8434C125.147 27.6793 125.571 29.1286 126.453 30.1271C127.334 31.19 128.575 31.6731 130.11 31.6731ZM148.721 24.2652C147.382 23.7176 146.533 23.2989 146.141 22.9446C145.815 22.6226 145.652 22.1716 145.652 21.5919C145.652 21.1088 145.848 20.6256 146.337 20.3036C146.827 19.9815 147.382 19.8204 148.198 19.8204C148.917 19.8204 149.668 19.9493 150.386 20.1425C151.104 20.3358 151.757 20.6256 152.28 21.0121L152.443 21.141V17.2116L152.345 17.1794C151.855 16.9861 151.202 16.7929 150.419 16.6318C149.635 16.503 148.917 16.4386 148.329 16.4386C146.305 16.4386 144.639 16.9217 143.333 17.9846C142.027 18.983 141.407 20.3358 141.407 21.914C141.407 22.7514 141.538 23.4922 141.831 24.1041C142.125 24.7161 142.55 25.2958 143.137 25.779C143.725 26.2299 144.574 26.7452 145.75 27.2283C146.729 27.6471 147.48 27.9691 147.937 28.2268C148.394 28.4845 148.688 28.7743 148.917 28.9998L148.917 28.9998C149.08 29.2575 149.178 29.5795 149.178 29.9983C149.178 31.19 148.264 31.7697 146.403 31.7697C145.684 31.7697 144.933 31.6409 144.052 31.351C143.17 31.0611 142.354 30.6424 141.668 30.1593L141.505 30.0305V34.1209L141.603 34.1531C142.223 34.443 142.974 34.6362 143.888 34.8617C144.803 35.0227 145.619 35.1516 146.337 35.1516C148.525 35.1516 150.321 34.6685 151.594 33.6056C152.9 32.5749 153.586 31.2544 153.586 29.5473C153.586 28.3556 153.259 27.2928 152.541 26.4876C151.594 25.7146 150.419 24.9093 148.721 24.2652ZM157.765 19.0474C159.43 17.3404 161.814 16.4708 164.785 16.4708C167.593 16.4708 169.846 17.276 171.381 18.9186C172.981 20.5612 173.764 22.8158 173.764 25.6501C173.764 28.5167 172.948 30.8357 171.25 32.5749C169.585 34.3142 167.267 35.1838 164.361 35.1838C161.585 35.1838 159.365 34.3464 157.733 32.736C156.1 31.0933 155.251 28.8388 155.251 26.0688C155.251 23.1057 156.1 20.7545 157.765 19.0474ZM168.148 30.1915C167.365 31.19 166.124 31.6731 164.589 31.6731C163.022 31.6731 161.814 31.19 160.932 30.1271C160.051 29.1286 159.626 27.6793 159.626 25.8434C159.626 23.9431 160.083 22.4937 160.932 21.4631C161.814 20.4324 163.022 19.9171 164.557 19.9171C166.026 19.9171 167.234 20.4002 168.083 21.3986C168.932 22.3971 169.389 23.8465 169.389 25.7468C169.389 27.6793 168.964 29.1931 168.148 30.1915Z" fill="black"/>
<path d="M0 0H20.351V20.412H0V0Z" fill="black"/>
<path d="M22.4814 0H42.8324V20.412H22.4814V0Z" fill="black"/>
<path d="M0 22.5459H20.351V42.9579H0V22.5459Z" fill="black"/>
<path d="M22.4814 22.5459H42.8324V42.9579H22.4814V22.5459Z" fill="black"/>
</svg>
