<svg width="149" height="33" viewBox="0 0 149 33" fill="none" xmlns="http://www.w3.org/2000/svg">
<path d="M139.142 31.8324L142.546 13.8274L137.877 16.2154L137.81 13.6215L145.448 9H148.411L145.279 31.8324H139.142Z" fill="white"/>
<path d="M27.725 17.1243L24.893 31.8023H20.386L23.2202 17.1243H27.725V17.1243Z" fill="white"/>
<path d="M26.2016 9.78543C27.759 9.78543 28.5385 10.4036 28.54 11.6399C28.5537 12.3199 28.3262 12.9858 27.8914 13.5392C27.2881 14.2984 26.3966 14.678 25.2168 14.678C23.6249 14.678 22.8305 14.0498 22.8337 12.7936C22.8101 11.9952 23.1552 11.2243 23.7855 10.6678C24.4312 10.0954 25.2997 9.77819 26.2016 9.78543" fill="white"/>
<path d="M34.9014 17.4734L34.146 21.2535C34.5274 20.3037 35.0951 19.4339 35.8181 18.6919C36.9266 17.6468 38.3192 17.1243 39.9958 17.1243C41.6724 17.1243 42.8424 17.6253 43.5057 18.6275C43.8657 19.2159 44.0484 19.8898 44.0331 20.5731C44.0101 21.2918 43.9199 22.007 43.7636 22.71L41.9212 31.8023H37.2805L39.1667 22.5654C39.3241 21.8629 39.4196 21.1488 39.4523 20.4308C39.4705 20.0194 39.3284 19.6163 39.0539 19.3012C38.7963 19.01 38.4163 18.8466 38.0198 18.8565C35.99 18.8565 34.5683 20.8651 33.7545 24.8824L32.3519 31.7934H27.7251L30.6339 17.4645L34.9014 17.4734Z" fill="white"/>
<path d="M56.4413 27.4922H58.2856C58.0138 28.5331 57.5147 29.5029 56.8232 30.3338C55.4819 31.864 53.5818 32.6253 51.1228 32.6177C49.1046 32.6177 47.5522 32.1418 46.4655 31.19C45.3789 30.2382 44.8402 28.8694 44.8495 27.0837C44.8483 25.6855 45.099 24.2983 45.59 22.9865C46.0121 21.7743 46.6844 20.6614 47.5646 19.718C49.2723 17.9889 51.4565 17.1243 54.1174 17.1243C56.3311 17.1243 57.8757 17.7716 58.7513 19.0661C59.2721 19.8522 59.5421 20.7739 59.5267 21.7126C59.5213 22.098 59.4808 22.4821 59.4056 22.8603H54.9789C55.1369 22.0832 55.2204 21.2932 55.2281 20.5007C55.2281 19.1511 54.7306 18.4762 53.7355 18.4762C53.1518 18.4863 52.5968 18.7279 52.1962 19.1465C51.6188 19.7019 51.0451 20.9536 50.4754 22.9016C49.9057 24.8496 49.627 26.5328 49.6394 27.9513C49.6394 29.0224 49.8777 29.8388 50.3543 30.4004C50.798 30.922 51.4621 31.2111 52.152 31.1831C53.1208 31.1729 54.0512 30.808 54.7624 30.1594C55.5742 29.4504 56.1571 28.5223 56.439 27.4899" fill="white"/>
<path fill-rule="evenodd" clip-rule="evenodd" d="M68.4233 30.4368C69.0529 29.8239 69.5725 29.1114 69.9603 28.3295L69.3511 31.3904H73.7295L75.5572 22.26C75.7304 21.4521 75.8239 20.6298 75.8362 19.8044C75.8362 17.4741 73.9186 16.3089 70.0835 16.3089C67.5893 16.3104 65.7175 16.7959 64.4681 17.7654C63.4463 18.5427 62.74 19.6501 62.4753 20.89H66.9793L67.0561 20.6146C67.2979 19.5374 67.635 18.7576 68.0675 18.2751C68.503 17.7939 69.1366 17.5298 69.7929 17.556C70.8602 17.556 71.3903 18.134 71.3903 19.2719C71.3648 19.8002 71.294 20.3255 71.1787 20.8422L70.8439 22.5103C67.0088 22.6165 64.4115 23.0535 63.052 23.8212C62.2211 24.2752 61.5341 24.9445 61.0662 25.7556C60.5825 26.5872 60.333 27.5296 60.3431 28.4865C60.3493 29.5531 60.7058 30.3723 61.4127 30.9443C62.1196 31.5163 63.1272 31.8023 64.4355 31.8023C66.0802 31.8023 67.4095 31.3471 68.4233 30.4368ZM70.6141 23.6528C70.6147 23.6528 70.6154 23.6528 70.616 23.6528V23.6437C70.6154 23.6467 70.6147 23.6497 70.6141 23.6528ZM66.2934 24.8339C67.124 24.0467 68.5642 23.653 70.6141 23.6528C70.1375 25.8687 69.732 27.2903 69.3976 27.9176C68.6256 29.3422 67.6816 30.0545 66.5654 30.0545C65.5718 30.0545 65.0749 29.4476 65.0749 28.2339C65.0783 27.5764 65.197 26.9244 65.4261 26.3063C65.5983 25.7579 65.8947 25.2546 66.2934 24.8339Z" fill="white"/>
<path d="M77.7547 17.3623H79.773L80.5356 13.4172L85.3485 12.2317L84.3599 17.3623H88.0678L87.7664 18.8437H84.0768L82.3416 27.8014C82.2152 28.3635 82.1388 28.9358 82.1133 29.5116C82.1133 30.4746 82.541 30.9568 83.3964 30.9584C84.1235 30.9061 84.8414 30.7625 85.5335 30.5308L85.2504 32.0261C83.9309 32.3946 82.5709 32.5934 81.2023 32.6177C79.6482 32.6177 78.6018 32.1517 78.0629 31.2195C77.7425 30.6731 77.5774 30.0477 77.5858 29.4123C77.6107 28.6821 77.7009 27.9558 77.8552 27.2422L79.4854 18.8437H77.467L77.7547 17.3623Z" fill="white"/>
<path fill-rule="evenodd" clip-rule="evenodd" d="M91.1846 25.0949H100.866C101.016 24.3116 101.099 23.5167 101.115 22.719C101.115 20.5219 100.469 19.0076 99.1774 18.1763C98.0138 17.4543 96.6684 17.0897 95.3043 17.1269C93.7506 17.1149 92.2196 17.5059 90.8572 18.2626C89.9037 18.8119 89.0813 19.5672 88.4486 20.4749C87.7969 21.3905 87.2991 22.409 86.9752 23.489C86.6224 24.5982 86.4408 25.7558 86.437 26.9211C86.437 29.0653 87.1023 30.5849 88.4329 31.4798C89.6267 32.2557 91.0226 32.6512 92.4405 32.6155C94.8401 32.617 96.7837 31.8894 98.2713 30.4327C98.9979 29.6972 99.576 28.8254 99.9735 27.866H98.2287C97.767 28.8501 97.0674 29.7002 96.1947 30.3373C95.4017 30.9155 94.4492 31.2262 93.4721 31.2254C91.7304 31.2269 90.8595 30.2033 90.8595 28.1545C90.8747 27.1267 90.9835 26.1025 91.1846 25.0949ZM96.7845 21.1859C96.7735 22.0703 96.6804 22.9517 96.5064 23.8184H91.4425C92.2065 20.2099 93.4108 18.4057 95.0554 18.4057C96.2081 18.4057 96.7845 19.3324 96.7845 21.1859Z" fill="white"/>
<path d="M113.522 27.4922H115.367C115.094 28.5332 114.594 29.503 113.902 30.3338C112.561 31.864 110.661 32.6253 108.204 32.6177C106.186 32.6177 104.633 32.1418 103.547 31.19C102.46 30.2382 101.921 28.8694 101.931 27.0837C101.929 25.6855 102.18 24.2983 102.671 22.9865C103.092 21.7738 103.765 20.6608 104.646 19.718C106.353 17.9889 108.537 17.1243 111.196 17.1243C113.413 17.1243 114.958 17.7716 115.83 19.0661C116.352 19.8519 116.623 20.7737 116.608 21.7126C116.603 22.0981 116.561 22.4823 116.484 22.8603H112.06C112.224 22.0837 112.312 21.2937 112.325 20.5007C112.325 19.1511 111.827 18.4762 110.833 18.4762C110.249 18.4863 109.694 18.7279 109.294 19.1465C108.713 19.7019 108.139 20.9536 107.57 22.9016C107.002 24.8496 106.717 26.5328 106.716 27.9513C106.716 29.0224 106.955 29.8388 107.433 30.4004C107.877 30.922 108.541 31.2111 109.231 31.1831C110.203 31.1765 111.138 30.8132 111.853 30.164C112.663 29.4538 113.246 28.5261 113.529 27.4945" fill="white"/>
<path d="M123.549 19.9083C124.753 17.7425 126.533 16.6589 128.888 16.6574C130.561 16.6574 131.723 17.1804 132.376 18.2265C132.748 18.8591 132.935 19.5835 132.916 20.3172C132.883 21.1071 132.782 21.8926 132.615 22.6652L130.825 31.8023H126.21L128.121 22.0288C128.253 21.3883 128.323 20.7367 128.33 20.0829C128.33 18.9617 127.859 18.4011 126.917 18.4011C125.894 18.4011 125.022 18.9181 124.3 19.9519C123.579 20.9858 123.023 22.5282 122.632 24.579L121.217 31.8023H116.608L121.242 8.15442H125.858L123.549 19.9083Z" fill="white"/>
<path d="M9.0391 31.8023L0 8.5028H6.78569L10.3763 28.4809L14.3487 3.26178H21.2015L14.83 31.7909L9.0391 31.8023V31.8023Z" fill="white"/>
<path d="M9.7854 4.07722L17.785 0L25.2788 4.07722H21.7308" fill="white"/>
</svg>
