<svg width="203" height="36" viewBox="0 0 203 36" fill="none" xmlns="http://www.w3.org/2000/svg">
<g opacity="0.2">
<path fill-rule="evenodd" clip-rule="evenodd" d="M181.959 12.4868C184.212 10.9737 186.887 10.1569 189.631 10.1445V10.1433C196.738 10.1433 202.5 15.7077 202.5 22.5717C202.5 29.4356 196.738 35 189.631 35C186.887 34.9874 184.212 34.1706 181.959 32.6577V34.5868H176.5V0H181.959V12.4868ZM183.011 26.217C184.389 28.4659 186.926 29.8111 189.631 29.7267C193.723 29.7267 197.041 26.5227 197.041 22.5704C197.041 18.6181 193.723 15.4141 189.631 15.4141C186.926 15.3297 184.389 16.6749 183.011 18.9238C181.633 21.1727 181.633 23.9681 183.011 26.217Z" fill="black"/>
<path d="M118.273 11.2794C115.841 11.7908 113.638 13.0245 111.976 14.8057V11H106.5V35H111.976V23.6252C111.951 20.7344 113.668 18.0903 116.382 16.842C117.347 16.3417 118.408 16.035 119.5 15.9406L118.273 11.2794Z" fill="black"/>
<path d="M145.001 11L141.34 25.37L136.473 11H133.347L128.618 25.3861L124.81 11H119.5L125.686 35H131.145L134.962 23.0781L138.896 35H144.459L150.5 11H145.001Z" fill="black"/>
<path d="M68.6202 9.97085C66.9246 9.96859 65.2551 10.3823 63.7626 11.1747V0H58.5V33.9988H63.7626V19.7521C63.7761 18.5044 64.2983 17.3143 65.2119 16.4497C66.1255 15.585 67.3536 15.1183 68.6202 15.1545C69.8684 15.1046 71.0802 15.5748 71.9583 16.4498C72.8365 17.3248 73.2997 18.5236 73.2343 19.7521V34H78.497V19.7521C78.5632 17.1482 77.5458 14.6308 75.6806 12.7839C73.8155 10.937 71.2648 9.92117 68.6202 9.97208" fill="black"/>
<path d="M46.1315 19.3529C42.2517 18.7569 41.5612 17.714 41.5612 17.0013C41.5612 15.3243 43.7727 14.434 45.6571 14.434C47.7574 14.4589 49.7208 15.4676 50.9469 17.1515L55.2106 14.1873C52.8306 11.4385 49.3183 9.9009 45.6571 10.005H45.6462C40.313 10.005 36.4597 12.7951 36.275 16.7832C36.0939 20.677 39.1239 23.1311 45.2817 24.0787C48.6014 24.5888 50.1345 25.3897 50.3325 26.5363C50.5256 27.6591 49.3667 29.3861 45.7259 29.3861C43.5359 29.4503 41.4303 28.5498 39.9798 26.9284L35.5 29.5911C37.6488 32.8282 42.1829 33.982 45.7175 33.982H45.732C48.6243 34.1479 51.4635 33.1637 53.616 31.249C54.9797 29.867 55.6576 27.9621 55.469 26.0417C55.0441 20.4804 48.5205 19.7188 46.1303 19.3529" fill="black"/>
<path fill-rule="evenodd" clip-rule="evenodd" d="M92.9608 34.9976C85.4992 34.9976 80.5024 29.6157 80.5024 22.9991H80.5C80.5 16.3722 85.8726 11 92.5 11C99.1274 11 104.5 16.3722 104.5 22.9991C104.5 23.8568 104.409 24.7122 104.227 25.5503H86.0931C86.5641 28.1437 89.118 30.4179 92.8957 30.4179C95.5025 30.4586 97.9607 29.2077 99.4622 27.0765L103.369 29.7084C100.998 33.0954 97.0948 35.0788 92.9608 34.9976ZM92.5018 16.1025C89.6777 16.1025 87.1389 17.8242 86.0943 20.4479H98.9093C97.8647 17.8242 95.326 16.1025 92.5018 16.1025Z" fill="black"/>
<path fill-rule="evenodd" clip-rule="evenodd" d="M162.957 34.9976C155.496 34.9976 150.5 29.6151 150.5 22.9979L150.502 23.0003C150.502 16.3727 155.874 11 162.501 11C169.128 11 174.5 16.3727 174.5 23.0003C174.5 23.8581 174.409 24.7135 174.227 25.5518H156.095C156.565 28.1454 159.12 30.4199 162.896 30.4199C165.502 30.4607 167.96 29.2097 169.462 27.0781L173.364 29.7079C170.993 33.0952 167.091 35.0788 162.957 34.9976ZM162.498 16.1006C159.674 16.1006 157.136 17.8225 156.091 20.4464H168.905C167.861 17.8225 165.322 16.1006 162.498 16.1006Z" fill="black"/>
<path d="M17.2235 4C17.2235 4 12.994 6.59522 10.5 8.51454C12.7633 10.4167 15.1992 12.0942 17.7746 13.5244C19.4903 14.4162 21.3745 14.9195 23.2985 15C25.1995 14.9234 27.0249 14.2191 28.5 12.993C26.8357 10.9597 24.9149 9.16018 22.7878 7.6413C22.7878 7.6413 18.8313 4.93258 17.226 4.00516" fill="black"/>
<path d="M32.5 20.7437C32.5 20.7437 29.9266 16.5034 28.0171 14C26.1108 16.2591 24.4274 18.692 22.99 21.2656C22.0932 22.979 21.5848 24.8636 21.5 26.7893C21.5696 28.6924 22.2665 30.5214 23.4854 32C25.5214 30.3409 27.3255 28.424 28.8509 26.299C28.8509 26.299 31.5633 22.3463 32.5 20.7437Z" fill="black"/>
<path d="M15.7748 36C15.7748 36 20.0059 33.4055 22.5 31.4844C20.2373 29.5828 17.8021 27.9057 15.2274 26.476C13.511 25.5829 11.6256 25.0794 9.70065 25C7.79998 25.0764 5.97496 25.7804 4.5 27.0062C6.16414 29.0398 8.08459 30.8397 10.2114 32.3591C10.2114 32.3591 14.1681 35.0685 15.7735 35.9974" fill="black"/>
<path d="M0.5 21.2492C0.5 21.2492 3.07099 25.4954 4.96967 28C6.87788 25.7437 8.5627 23.3125 10.0011 20.7397C10.9 19.0269 11.4114 17.1423 11.5 15.2158C11.4315 13.3117 10.7372 11.4811 9.52162 10C7.4859 11.6569 5.68167 13.5723 4.15595 15.6962C4.15595 15.6962 1.43841 19.6471 0.5 21.2492" fill="black"/>
</g>
</svg>
