<svg width="262" height="60" viewBox="0 0 262 60" fill="none" xmlns="http://www.w3.org/2000/svg">
<path d="M6.83409 59.3251C2.8538 59.3251 0.0750999 58.1251 0.0750999 58.1251V54.6751C0.0750999 54.6751 4.28069 56.0251 6.75899 56.0251C8.93688 56.0251 11.1148 55.6501 11.1148 52.9501C11.1148 50.9251 9.61278 50.4751 7.73529 49.9501L6.00799 49.5001C3.75499 48.8251 0 47.9251 0 43.3501C0 38.2501 4.13049 36.9751 8.41119 36.9751C12.2413 36.9751 14.4192 38.2501 14.4192 38.2501V41.6251C14.4192 41.6251 11.5654 40.2751 8.26099 40.2751C5.55739 40.2751 3.83009 40.8001 3.83009 43.1251C3.83009 45.1501 5.40719 45.6001 7.28469 46.1251L9.38748 46.7251C11.8658 47.4001 15.02 48.8251 15.02 52.8751C15.0951 57.9751 11.3401 59.3251 6.83409 59.3251Z" fill="black"/>
<path fill-rule="evenodd" clip-rule="evenodd" d="M19.5264 48.1501C19.5264 57.9751 25.3842 59.3251 29.5897 59.3251C33.57 59.3251 39.6531 58.1251 39.6531 48.1501C39.6531 38.3251 33.4949 36.9751 29.5897 36.9751C25.4593 36.9751 19.5264 38.5501 19.5264 48.1501ZM23.5818 48.1501C23.5818 40.6501 27.3368 39.9751 29.5898 39.9751C31.7676 39.9751 35.5226 40.5751 35.5977 48.1501C35.5977 55.4251 31.6174 56.2501 29.5898 56.2501C27.9376 56.2501 23.5818 55.7251 23.5818 48.1501Z" fill="black"/>
<path d="M44.9102 58.95V30.3H48.9655V58.95H44.9102Z" fill="black"/>
<path fill-rule="evenodd" clip-rule="evenodd" d="M68.7166 56.175L69.0921 58.95V59.025H72.6218V44.475C72.6218 38.775 69.3925 37.05 64.6612 37.05C60.2303 37.05 56.5504 38.55 56.5504 38.55V41.85C56.5504 41.85 60.6058 40.35 64.0604 40.35C66.9142 40.35 68.5664 41.025 68.5664 43.8V45.675H63.8351C60.3805 45.675 54.748 46.8 54.748 52.8C54.748 58.2 58.3528 59.4 61.6572 59.4C66.2383 59.4 68.7166 56.175 68.7166 56.175ZM64.6612 48.15L68.5664 48.075V53.475C68.5664 53.475 65.6375 56.25 62.6335 56.25C60.4556 56.25 58.7283 55.425 58.7283 52.65C58.7283 49.2 60.9813 48.225 64.6612 48.15Z" fill="black"/>
<path d="M87.341 40.6501C84.9378 40.6501 83.0603 43.2751 83.0603 43.2751V58.9501H79.0049V37.3501H82.2342L82.7599 40.3501C82.7599 40.3501 84.1117 36.9751 87.7916 36.9751C89.8944 36.9751 90.7205 37.5751 90.7205 37.5751V41.2501C90.7205 41.2501 89.4438 40.6501 87.341 40.6501Z" fill="black"/>
<path d="M122.864 58.9501H117.231L113.852 47.4751C112.951 44.4001 111.674 39.3751 111.674 39.3751C111.674 39.3751 110.322 44.4751 109.421 47.4001L106.116 58.9501H100.484L94.7764 37.3501H99.4326L102.061 49.7251C102.662 52.5751 103.338 57.0751 103.338 57.0751C103.338 57.0751 104.164 52.5751 105.065 49.7251L108.745 37.3501H114.603L118.283 49.7251C119.109 52.5001 120.01 57.0751 120.01 57.0751C120.01 57.0751 120.686 52.9501 121.362 49.7251L123.99 37.3501H128.571L122.864 58.9501Z" fill="black"/>
<path d="M133.678 58.9499V37.2749H137.733V58.9499H133.678Z" fill="black"/>
<path d="M159.211 58.9501V44.1751C159.211 41.4751 158.085 40.5001 155.306 40.5001C151.701 40.5001 148.172 43.2001 148.172 43.2001V58.9501H144.116V37.3501H147.27L148.097 40.4251C148.097 40.4251 151.701 36.9751 156.282 36.9751C160.263 36.9751 163.267 38.7001 163.267 44.2501V58.9501H159.211Z" fill="black"/>
<path fill-rule="evenodd" clip-rule="evenodd" d="M183.994 56.25L184.445 58.95H187.599V30.3H183.544V39.225C183.544 39.225 181.741 37.05 177.836 37.05C174.982 37.05 168.073 38.4 168.073 48.225C168.073 57.9 173.631 59.4 177.01 59.4C181.741 59.4 183.994 56.25 183.994 56.25ZM178.212 40.2C181.291 40.2 183.544 42.375 183.544 42.375V53.625C183.544 53.625 180.765 56.1 177.836 56.1C175.283 56.1 172.129 55.275 172.129 48.15C172.129 41.4 175.208 40.2 178.212 40.2Z" fill="black"/>
<path d="M200.141 59.3251C196.16 59.3251 193.382 58.1251 193.382 58.1251V54.6751C193.382 54.6751 197.587 56.0251 200.066 56.0251C202.244 56.0251 204.421 55.6501 204.421 52.9501C204.421 50.9251 202.919 50.4751 201.042 49.9501L199.315 49.5001C197.062 48.8251 193.307 47.9251 193.307 43.3501C193.307 38.2501 197.437 36.9751 201.718 36.9751C205.548 36.9751 207.726 38.2501 207.726 38.2501V41.6251C207.726 41.6251 204.872 40.2751 201.568 40.2751C198.864 40.2751 197.137 40.8001 197.137 43.1251C197.137 45.1501 198.714 45.6001 200.591 46.1251L202.694 46.7251C205.172 47.4001 208.327 48.8251 208.327 52.8751C208.402 57.9751 204.722 59.3251 200.141 59.3251Z" fill="black"/>
<path d="M227.468 24.342C227.696 24.2667 227.847 24.2667 227.999 24.1913C232.167 22.9855 236.183 21.4029 240.275 19.7449C244.216 18.087 248.081 16.1275 251.567 13.3391C255.053 10.4754 257.857 6.78261 259.448 2.26087C259.675 1.65797 260.13 0.678261 260.13 0C254.674 7.46087 232.924 8.21449 232.924 8.21449L238.078 3.54203C217.465 3.61739 203.067 12.2841 196.474 16.9565C204.885 17.8609 212.539 21.4029 218.526 26.7536C221.481 25.8493 224.513 25.171 227.468 24.342Z" fill="black"/>
<path d="M261.494 23.5884C261.494 23.5884 241.487 22.0811 220.647 28.713C223.376 31.5768 225.725 34.8927 227.544 38.4347C238.456 32.4811 253.688 24.7188 261.494 23.5884Z" fill="black"/>
<path d="M228.908 41.6C230.196 44.8405 231.03 48.3072 231.409 51.9246L250.506 32.4058L228.908 41.6Z" fill="black"/>
</svg>
