<svg width="21" height="18" viewBox="0 0 21 18" fill="none" xmlns="http://www.w3.org/2000/svg">
<g opacity="0.4">
<path d="M8.01135 17.0589C7.1523 17.0589 6.26808 16.9893 5.37856 16.8499C3.81186 16.6041 2.22591 15.7846 1.77713 15.5392L0.600098 14.8956L1.87444 14.4766C3.26745 14.0185 4.11483 13.7344 5.1638 13.2894C4.11347 12.7807 3.30397 11.8658 2.91431 10.683L2.61785 9.78298L2.86096 9.82012C2.63043 9.58777 2.4484 9.35194 2.3073 9.13748C1.80547 8.37527 1.53979 7.44392 1.59632 6.64579L1.65209 5.86024L2.12239 6.04242C1.924 5.66776 1.78062 5.26763 1.69635 4.84826C1.49098 3.82552 1.66285 2.73897 2.18044 1.78882L2.59011 1.03677L3.13801 1.69485C4.87083 3.77641 7.0656 5.01119 9.67051 5.37267C9.56411 4.63926 9.64383 3.93146 9.9077 3.29702C10.2149 2.5583 10.7615 1.9319 11.4877 1.48539C12.2944 0.989631 13.2725 0.749405 14.2421 0.808969C15.2707 0.87217 16.2047 1.25759 16.9464 1.92432C17.3086 1.8302 17.5756 1.72971 17.9363 1.59391C18.1533 1.51222 18.3994 1.41946 18.7074 1.31337L19.8423 0.922337L19.1022 3.03603C19.151 3.03194 19.2014 3.02845 19.254 3.02618L20.4658 2.97131L19.7496 3.95025C19.7085 4.00633 19.698 4.02224 19.6835 4.04422C19.6257 4.13122 19.5539 4.23943 18.5707 5.55227C18.3246 5.88101 18.2017 6.30917 18.2245 6.7581C18.3117 8.46409 18.1024 10.0076 17.6021 11.3456C17.1289 12.6114 16.3956 13.6975 15.4229 14.5737C14.2192 15.6577 12.6843 16.3999 10.8607 16.7794C9.9662 16.9655 9.0056 17.0589 8.01135 17.0589Z" fill="white"/>
</g>
</svg>
