<svg width="190" height="34" viewBox="0 0 190 34" fill="none" xmlns="http://www.w3.org/2000/svg">
<path d="M35.0952 0.67323C33.5595 -0.13461 31.7077 0.493711 30.8946 2.06451L19.6931 26.0753V26.0753C19.4221 26.569 19.1962 26.928 18.6091 26.928C18.0219 26.928 17.796 26.569 17.525 26.0753V26.0753L6.32348 2.10939C5.55563 0.49371 3.65859 -0.134609 2.12289 0.71811C0.587197 1.52595 1.88649e-05 3.50067 0.767868 5.11635L11.7436 27.2871L13.0083 29.8003C14.0923 31.9995 16.2603 33.3907 18.6091 33.3907C21.0029 33.3907 23.1258 31.9995 24.2098 29.8003L25.4745 27.2871L36.4051 5.07147C37.2181 3.45579 36.6309 1.52595 35.0952 0.67323Z" fill="black"/>
<path d="M184.284 0.314209C182.161 0.314209 180.309 1.61573 179.451 3.41093C176.606 9.20045 168.204 26.3895 168.204 26.4344C168.159 26.5241 167.979 26.928 167.617 26.928C167.301 26.928 167.075 26.569 167.03 26.4344V26.4344C164.275 20.7346 158.764 9.46973 155.919 3.63533C154.79 1.39133 152.938 0.314209 150.95 0.314209V0.314209C147.879 0.314209 145.35 2.91725 145.35 6.41789V30.0696C145.35 31.5058 146.163 32.8522 147.427 33.2561C149.505 33.9293 151.267 32.1341 151.267 30.0248L150.815 7.00133C150.815 6.77693 151.086 6.68717 151.221 6.86669L162.604 29.8452C163.688 32.0444 165.494 33.3459 167.527 33.3459C169.559 33.3459 171.411 32.0444 172.45 29.8452L183.878 6.82181C183.968 6.59741 184.284 6.68717 184.284 6.95645L183.832 30.1145C183.832 31.9546 185.233 33.4356 186.904 33.3459C188.53 33.301 189.795 31.7302 189.795 29.9799C189.795 29.9799 189.795 12.2972 189.795 6.41789C189.885 2.87237 187.355 0.359089 184.284 0.314209Z" fill="black"/>
<path d="M141.464 28.5886L128.863 3.85973C127.779 1.66061 125.611 0.314209 123.262 0.314209C121.771 0.314209 120.371 0.852769 119.287 1.79525C118.61 2.37869 118.068 3.05189 117.661 3.90461L105.105 28.4988C105.105 28.5437 105.059 28.5437 105.059 28.5886V28.6335C104.472 29.8004 104.608 31.1019 105.285 32.0892C105.285 32.1341 105.33 32.1341 105.33 32.179C105.33 32.2239 105.376 32.2239 105.376 32.2688C105.601 32.538 105.872 32.8073 106.189 32.9868C107.273 33.6152 108.492 33.5254 109.441 32.8522C109.441 32.8522 109.486 32.8522 109.486 32.8073C109.576 32.7624 109.621 32.7176 109.667 32.6727C109.712 32.6278 109.757 32.5829 109.802 32.538L109.847 32.4932C110.073 32.2688 110.254 31.9995 110.434 31.6853L110.886 30.698L113.506 25.2226C113.551 25.088 113.732 24.9982 113.867 24.9982V24.9982H125.566V24.9982C127.101 24.9982 128.366 23.6967 128.366 22.0361C128.366 20.4204 127.101 19.074 125.566 19.074H118.61V19.074H116.893C116.713 19.074 116.577 18.8945 116.667 18.715L117.3 17.3686L122.042 7.89893V7.85405C122.042 7.85405 122.042 7.80917 122.088 7.80917V7.80917C122.178 7.62965 122.404 6.95645 122.855 6.82181C123.126 6.73205 123.352 6.73205 123.533 6.82181C124.03 6.95645 124.21 7.53989 124.436 7.98869V7.98869L135.909 31.6853C136.451 32.7624 137.535 33.3908 138.664 33.3908C139.025 33.3908 139.387 33.3459 139.703 33.2112C139.703 33.2112 139.748 33.2112 139.748 33.1664C139.838 33.1215 139.929 33.0766 140.019 33.0317C140.064 33.0317 140.064 32.9868 140.109 32.9868C140.109 32.9868 140.155 32.9868 140.155 32.942C140.2 32.942 140.2 32.8971 140.245 32.8971C140.29 32.8971 140.335 32.8522 140.335 32.8073C140.38 32.8073 140.38 32.7624 140.426 32.7624C140.471 32.7176 140.516 32.6727 140.561 32.6727C140.606 32.6278 140.651 32.5829 140.697 32.538L140.742 32.4932C141.871 31.5507 142.142 29.935 141.464 28.5886Z" fill="black"/>
<path fill-rule="evenodd" clip-rule="evenodd" d="M64.8157 20.4204H43.5869C43.4062 20.4204 43.3159 20.5999 43.3159 20.7794C44.3096 25.6714 48.3747 28.1398 52.7107 28.1398C57.2593 28.1398 59.0342 26.6524 61.2954 24.7573C61.3245 24.733 61.3537 24.7085 61.3829 24.684C62.8283 23.4274 64.4995 22.6195 66.0804 24.1006C67.1644 25.1328 67.1192 27.0626 66.0804 28.3642C64.8157 29.9798 63.551 30.8326 63.2348 31.0121C60.0731 32.9419 57.2275 33.8395 53.7948 33.8395C53.3883 33.8395 52.9366 33.8395 52.5301 33.7946C43.6321 33.301 36.9473 27.691 36.9473 17.3237V16.471C36.9473 7.4052 44.0386 0 52.7559 0C61.4733 0 68.5194 7.4052 68.5194 16.471C68.5194 20.1511 65.2222 20.4204 64.8157 20.4204ZM52.7107 5.3856C47.2003 5.3856 43.9031 9.60432 43.3159 14.3616C43.3159 14.5411 43.4062 14.6758 43.5869 14.7206H61.9701C62.1508 14.7206 62.2411 14.5411 62.2411 14.3616C61.6991 9.51456 58.2212 5.3856 52.7107 5.3856Z" fill="black"/>
<path fill-rule="evenodd" clip-rule="evenodd" d="M100.046 20.4204H78.8171C78.6816 20.4204 78.5461 20.5999 78.5913 20.7794C79.585 25.6714 83.6501 28.1398 87.9861 28.1398C92.5347 28.1398 94.3096 26.6524 96.5708 24.7573C96.5999 24.733 96.6291 24.7085 96.6583 24.684C98.1037 23.4274 99.7749 22.6195 101.356 24.1006C102.44 25.1328 102.395 27.0626 101.356 28.3642C100.091 29.9798 98.8264 30.8326 98.5102 31.0121C95.3485 32.9419 92.5029 33.8395 89.0702 33.8395C88.6637 33.8395 88.212 33.8395 87.8055 33.7946C78.9075 33.301 72.2227 27.691 72.2227 17.3237V16.471C72.2227 7.4052 79.314 0 87.9861 0C96.6583 0 103.704 7.4052 103.75 16.471C103.75 20.1511 100.452 20.4204 100.046 20.4204ZM87.9861 5.3856C82.4757 5.3856 79.1785 9.60432 78.5913 14.3616C78.5461 14.5411 78.6816 14.6758 78.8623 14.7206H97.2455C97.4262 14.7206 97.5165 14.5411 97.5165 14.3616C96.9745 9.51456 93.4966 5.3856 87.9861 5.3856Z" fill="black"/>
</svg>
